<?xml version="1.0" encoding="utf-8" standalone="no"?>
<!DOCTYPE svg PUBLIC "-//W3C//DTD SVG 1.1//EN"
  "http://www.w3.org/Graphics/SVG/1.1/DTD/svg11.dtd">
<!-- Created with matplotlib (https://matplotlib.org/) -->
<svg height="345.6pt" version="1.1" viewBox="0 0 460.8 345.6" width="460.8pt" xmlns="http://www.w3.org/2000/svg" xmlns:xlink="http://www.w3.org/1999/xlink">
 <defs>
  <style type="text/css">
*{stroke-linecap:butt;stroke-linejoin:round;}
  </style>
 </defs>
 <g id="figure_1">
  <g id="patch_1">
   <path d="M 0 345.6 
L 460.8 345.6 
L 460.8 0 
L 0 0 
z
" style="fill:#ffffff;"/>
  </g>
  <g id="axes_1">
   <g id="patch_2">
    <path d="M 57.6 307.584 
L 414.72 307.584 
L 414.72 41.472 
L 57.6 41.472 
z
" style="fill:#ffffff;"/>
   </g>
   <g id="matplotlib.axis_1">
    <g id="xtick_1">
     <g id="line2d_1">
      <path clip-path="url(#p0813f918d2)" d="M 73.368272 307.584 
L 73.368272 41.472 
" style="fill:none;stroke:#b0b0b0;stroke-linecap:square;stroke-width:0.8;"/>
     </g>
     <g id="line2d_2">
      <defs>
       <path d="M 0 0 
L 0 3.5 
" id="m6b1b492212" style="stroke:#000000;stroke-width:0.8;"/>
      </defs>
      <g>
       <use style="stroke:#000000;stroke-width:0.8;" x="73.368272" xlink:href="#m6b1b492212" y="307.584"/>
      </g>
     </g>
     <g id="text_1">
      <!-- 0 -->
      <defs>
       <path d="M 31.78125 66.40625 
Q 24.171875 66.40625 20.328125 58.90625 
Q 16.5 51.421875 16.5 36.375 
Q 16.5 21.390625 20.328125 13.890625 
Q 24.171875 6.390625 31.78125 6.390625 
Q 39.453125 6.390625 43.28125 13.890625 
Q 47.125 21.390625 47.125 36.375 
Q 47.125 51.421875 43.28125 58.90625 
Q 39.453125 66.40625 31.78125 66.40625 
z
M 31.78125 74.21875 
Q 44.046875 74.21875 50.515625 64.515625 
Q 56.984375 54.828125 56.984375 36.375 
Q 56.984375 17.96875 50.515625 8.265625 
Q 44.046875 -1.421875 31.78125 -1.421875 
Q 19.53125 -1.421875 13.0625 8.265625 
Q 6.59375 17.96875 6.59375 36.375 
Q 6.59375 54.828125 13.0625 64.515625 
Q 19.53125 74.21875 31.78125 74.21875 
z
" id="DejaVuSans-48"/>
      </defs>
      <g transform="translate(70.187022 322.182437)scale(0.1 -0.1)">
       <use xlink:href="#DejaVuSans-48"/>
      </g>
     </g>
    </g>
    <g id="xtick_2">
     <g id="line2d_3">
      <path clip-path="url(#p0813f918d2)" d="M 119.813843 307.584 
L 119.813843 41.472 
" style="fill:none;stroke:#b0b0b0;stroke-linecap:square;stroke-width:0.8;"/>
     </g>
     <g id="line2d_4">
      <g>
       <use style="stroke:#000000;stroke-width:0.8;" x="119.813843" xlink:href="#m6b1b492212" y="307.584"/>
      </g>
     </g>
     <g id="text_2">
      <!-- 10 -->
      <defs>
       <path d="M 12.40625 8.296875 
L 28.515625 8.296875 
L 28.515625 63.921875 
L 10.984375 60.40625 
L 10.984375 69.390625 
L 28.421875 72.90625 
L 38.28125 72.90625 
L 38.28125 8.296875 
L 54.390625 8.296875 
L 54.390625 0 
L 12.40625 0 
z
" id="DejaVuSans-49"/>
      </defs>
      <g transform="translate(113.451343 322.182437)scale(0.1 -0.1)">
       <use xlink:href="#DejaVuSans-49"/>
       <use x="63.623047" xlink:href="#DejaVuSans-48"/>
      </g>
     </g>
    </g>
    <g id="xtick_3">
     <g id="line2d_5">
      <path clip-path="url(#p0813f918d2)" d="M 166.259415 307.584 
L 166.259415 41.472 
" style="fill:none;stroke:#b0b0b0;stroke-linecap:square;stroke-width:0.8;"/>
     </g>
     <g id="line2d_6">
      <g>
       <use style="stroke:#000000;stroke-width:0.8;" x="166.259415" xlink:href="#m6b1b492212" y="307.584"/>
      </g>
     </g>
     <g id="text_3">
      <!-- 20 -->
      <defs>
       <path d="M 19.1875 8.296875 
L 53.609375 8.296875 
L 53.609375 0 
L 7.328125 0 
L 7.328125 8.296875 
Q 12.9375 14.109375 22.625 23.890625 
Q 32.328125 33.6875 34.8125 36.53125 
Q 39.546875 41.84375 41.421875 45.53125 
Q 43.3125 49.21875 43.3125 52.78125 
Q 43.3125 58.59375 39.234375 62.25 
Q 35.15625 65.921875 28.609375 65.921875 
Q 23.96875 65.921875 18.8125 64.3125 
Q 13.671875 62.703125 7.8125 59.421875 
L 7.8125 69.390625 
Q 13.765625 71.78125 18.9375 73 
Q 24.125 74.21875 28.421875 74.21875 
Q 39.75 74.21875 46.484375 68.546875 
Q 53.21875 62.890625 53.21875 53.421875 
Q 53.21875 48.921875 51.53125 44.890625 
Q 49.859375 40.875 45.40625 35.40625 
Q 44.1875 33.984375 37.640625 27.21875 
Q 31.109375 20.453125 19.1875 8.296875 
z
" id="DejaVuSans-50"/>
      </defs>
      <g transform="translate(159.896915 322.182437)scale(0.1 -0.1)">
       <use xlink:href="#DejaVuSans-50"/>
       <use x="63.623047" xlink:href="#DejaVuSans-48"/>
      </g>
     </g>
    </g>
    <g id="xtick_4">
     <g id="line2d_7">
      <path clip-path="url(#p0813f918d2)" d="M 212.704986 307.584 
L 212.704986 41.472 
" style="fill:none;stroke:#b0b0b0;stroke-linecap:square;stroke-width:0.8;"/>
     </g>
     <g id="line2d_8">
      <g>
       <use style="stroke:#000000;stroke-width:0.8;" x="212.704986" xlink:href="#m6b1b492212" y="307.584"/>
      </g>
     </g>
     <g id="text_4">
      <!-- 30 -->
      <defs>
       <path d="M 40.578125 39.3125 
Q 47.65625 37.796875 51.625 33 
Q 55.609375 28.21875 55.609375 21.1875 
Q 55.609375 10.40625 48.1875 4.484375 
Q 40.765625 -1.421875 27.09375 -1.421875 
Q 22.515625 -1.421875 17.65625 -0.515625 
Q 12.796875 0.390625 7.625 2.203125 
L 7.625 11.71875 
Q 11.71875 9.328125 16.59375 8.109375 
Q 21.484375 6.890625 26.8125 6.890625 
Q 36.078125 6.890625 40.9375 10.546875 
Q 45.796875 14.203125 45.796875 21.1875 
Q 45.796875 27.640625 41.28125 31.265625 
Q 36.765625 34.90625 28.71875 34.90625 
L 20.21875 34.90625 
L 20.21875 43.015625 
L 29.109375 43.015625 
Q 36.375 43.015625 40.234375 45.921875 
Q 44.09375 48.828125 44.09375 54.296875 
Q 44.09375 59.90625 40.109375 62.90625 
Q 36.140625 65.921875 28.71875 65.921875 
Q 24.65625 65.921875 20.015625 65.03125 
Q 15.375 64.15625 9.8125 62.3125 
L 9.8125 71.09375 
Q 15.4375 72.65625 20.34375 73.4375 
Q 25.25 74.21875 29.59375 74.21875 
Q 40.828125 74.21875 47.359375 69.109375 
Q 53.90625 64.015625 53.90625 55.328125 
Q 53.90625 49.265625 50.4375 45.09375 
Q 46.96875 40.921875 40.578125 39.3125 
z
" id="DejaVuSans-51"/>
      </defs>
      <g transform="translate(206.342486 322.182437)scale(0.1 -0.1)">
       <use xlink:href="#DejaVuSans-51"/>
       <use x="63.623047" xlink:href="#DejaVuSans-48"/>
      </g>
     </g>
    </g>
    <g id="xtick_5">
     <g id="line2d_9">
      <path clip-path="url(#p0813f918d2)" d="M 259.150558 307.584 
L 259.150558 41.472 
" style="fill:none;stroke:#b0b0b0;stroke-linecap:square;stroke-width:0.8;"/>
     </g>
     <g id="line2d_10">
      <g>
       <use style="stroke:#000000;stroke-width:0.8;" x="259.150558" xlink:href="#m6b1b492212" y="307.584"/>
      </g>
     </g>
     <g id="text_5">
      <!-- 40 -->
      <defs>
       <path d="M 37.796875 64.3125 
L 12.890625 25.390625 
L 37.796875 25.390625 
z
M 35.203125 72.90625 
L 47.609375 72.90625 
L 47.609375 25.390625 
L 58.015625 25.390625 
L 58.015625 17.1875 
L 47.609375 17.1875 
L 47.609375 0 
L 37.796875 0 
L 37.796875 17.1875 
L 4.890625 17.1875 
L 4.890625 26.703125 
z
" id="DejaVuSans-52"/>
      </defs>
      <g transform="translate(252.788058 322.182437)scale(0.1 -0.1)">
       <use xlink:href="#DejaVuSans-52"/>
       <use x="63.623047" xlink:href="#DejaVuSans-48"/>
      </g>
     </g>
    </g>
    <g id="xtick_6">
     <g id="line2d_11">
      <path clip-path="url(#p0813f918d2)" d="M 305.59613 307.584 
L 305.59613 41.472 
" style="fill:none;stroke:#b0b0b0;stroke-linecap:square;stroke-width:0.8;"/>
     </g>
     <g id="line2d_12">
      <g>
       <use style="stroke:#000000;stroke-width:0.8;" x="305.59613" xlink:href="#m6b1b492212" y="307.584"/>
      </g>
     </g>
     <g id="text_6">
      <!-- 50 -->
      <defs>
       <path d="M 10.796875 72.90625 
L 49.515625 72.90625 
L 49.515625 64.59375 
L 19.828125 64.59375 
L 19.828125 46.734375 
Q 21.96875 47.46875 24.109375 47.828125 
Q 26.265625 48.1875 28.421875 48.1875 
Q 40.625 48.1875 47.75 41.5 
Q 54.890625 34.8125 54.890625 23.390625 
Q 54.890625 11.625 47.5625 5.09375 
Q 40.234375 -1.421875 26.90625 -1.421875 
Q 22.3125 -1.421875 17.546875 -0.640625 
Q 12.796875 0.140625 7.71875 1.703125 
L 7.71875 11.625 
Q 12.109375 9.234375 16.796875 8.0625 
Q 21.484375 6.890625 26.703125 6.890625 
Q 35.15625 6.890625 40.078125 11.328125 
Q 45.015625 15.765625 45.015625 23.390625 
Q 45.015625 31 40.078125 35.4375 
Q 35.15625 39.890625 26.703125 39.890625 
Q 22.75 39.890625 18.8125 39.015625 
Q 14.890625 38.140625 10.796875 36.28125 
z
" id="DejaVuSans-53"/>
      </defs>
      <g transform="translate(299.23363 322.182437)scale(0.1 -0.1)">
       <use xlink:href="#DejaVuSans-53"/>
       <use x="63.623047" xlink:href="#DejaVuSans-48"/>
      </g>
     </g>
    </g>
    <g id="xtick_7">
     <g id="line2d_13">
      <path clip-path="url(#p0813f918d2)" d="M 352.041701 307.584 
L 352.041701 41.472 
" style="fill:none;stroke:#b0b0b0;stroke-linecap:square;stroke-width:0.8;"/>
     </g>
     <g id="line2d_14">
      <g>
       <use style="stroke:#000000;stroke-width:0.8;" x="352.041701" xlink:href="#m6b1b492212" y="307.584"/>
      </g>
     </g>
     <g id="text_7">
      <!-- 60 -->
      <defs>
       <path d="M 33.015625 40.375 
Q 26.375 40.375 22.484375 35.828125 
Q 18.609375 31.296875 18.609375 23.390625 
Q 18.609375 15.53125 22.484375 10.953125 
Q 26.375 6.390625 33.015625 6.390625 
Q 39.65625 6.390625 43.53125 10.953125 
Q 47.40625 15.53125 47.40625 23.390625 
Q 47.40625 31.296875 43.53125 35.828125 
Q 39.65625 40.375 33.015625 40.375 
z
M 52.59375 71.296875 
L 52.59375 62.3125 
Q 48.875 64.0625 45.09375 64.984375 
Q 41.3125 65.921875 37.59375 65.921875 
Q 27.828125 65.921875 22.671875 59.328125 
Q 17.53125 52.734375 16.796875 39.40625 
Q 19.671875 43.65625 24.015625 45.921875 
Q 28.375 48.1875 33.59375 48.1875 
Q 44.578125 48.1875 50.953125 41.515625 
Q 57.328125 34.859375 57.328125 23.390625 
Q 57.328125 12.15625 50.6875 5.359375 
Q 44.046875 -1.421875 33.015625 -1.421875 
Q 20.359375 -1.421875 13.671875 8.265625 
Q 6.984375 17.96875 6.984375 36.375 
Q 6.984375 53.65625 15.1875 63.9375 
Q 23.390625 74.21875 37.203125 74.21875 
Q 40.921875 74.21875 44.703125 73.484375 
Q 48.484375 72.75 52.59375 71.296875 
z
" id="DejaVuSans-54"/>
      </defs>
      <g transform="translate(345.679201 322.182437)scale(0.1 -0.1)">
       <use xlink:href="#DejaVuSans-54"/>
       <use x="63.623047" xlink:href="#DejaVuSans-48"/>
      </g>
     </g>
    </g>
    <g id="xtick_8">
     <g id="line2d_15">
      <path clip-path="url(#p0813f918d2)" d="M 398.487273 307.584 
L 398.487273 41.472 
" style="fill:none;stroke:#b0b0b0;stroke-linecap:square;stroke-width:0.8;"/>
     </g>
     <g id="line2d_16">
      <g>
       <use style="stroke:#000000;stroke-width:0.8;" x="398.487273" xlink:href="#m6b1b492212" y="307.584"/>
      </g>
     </g>
     <g id="text_8">
      <!-- 70 -->
      <defs>
       <path d="M 8.203125 72.90625 
L 55.078125 72.90625 
L 55.078125 68.703125 
L 28.609375 0 
L 18.3125 0 
L 43.21875 64.59375 
L 8.203125 64.59375 
z
" id="DejaVuSans-55"/>
      </defs>
      <g transform="translate(392.124773 322.182437)scale(0.1 -0.1)">
       <use xlink:href="#DejaVuSans-55"/>
       <use x="63.623047" xlink:href="#DejaVuSans-48"/>
      </g>
     </g>
    </g>
    <g id="text_9">
     <!-- t -->
     <defs>
      <path d="M 18.3125 70.21875 
L 18.3125 54.6875 
L 36.8125 54.6875 
L 36.8125 47.703125 
L 18.3125 47.703125 
L 18.3125 18.015625 
Q 18.3125 11.328125 20.140625 9.421875 
Q 21.96875 7.515625 27.59375 7.515625 
L 36.8125 7.515625 
L 36.8125 0 
L 27.59375 0 
Q 17.1875 0 13.234375 3.875 
Q 9.28125 7.765625 9.28125 18.015625 
L 9.28125 47.703125 
L 2.6875 47.703125 
L 2.6875 54.6875 
L 9.28125 54.6875 
L 9.28125 70.21875 
z
" id="DejaVuSans-116"/>
     </defs>
     <g transform="translate(234.199844 335.860562)scale(0.1 -0.1)">
      <use xlink:href="#DejaVuSans-116"/>
     </g>
    </g>
   </g>
   <g id="matplotlib.axis_2">
    <g id="ytick_1">
     <g id="line2d_17">
      <path clip-path="url(#p0813f918d2)" d="M 57.6 287.70717 
L 414.72 287.70717 
" style="fill:none;stroke:#b0b0b0;stroke-linecap:square;stroke-width:0.8;"/>
     </g>
     <g id="line2d_18">
      <defs>
       <path d="M 0 0 
L -3.5 0 
" id="m6d604ed77f" style="stroke:#000000;stroke-width:0.8;"/>
      </defs>
      <g>
       <use style="stroke:#000000;stroke-width:0.8;" x="57.6" xlink:href="#m6d604ed77f" y="287.70717"/>
      </g>
     </g>
     <g id="text_10">
      <!-- 0.00 -->
      <defs>
       <path d="M 10.6875 12.40625 
L 21 12.40625 
L 21 0 
L 10.6875 0 
z
" id="DejaVuSans-46"/>
      </defs>
      <g transform="translate(28.334375 291.506389)scale(0.1 -0.1)">
       <use xlink:href="#DejaVuSans-48"/>
       <use x="63.623047" xlink:href="#DejaVuSans-46"/>
       <use x="95.410156" xlink:href="#DejaVuSans-48"/>
       <use x="159.033203" xlink:href="#DejaVuSans-48"/>
      </g>
     </g>
    </g>
    <g id="ytick_2">
     <g id="line2d_19">
      <path clip-path="url(#p0813f918d2)" d="M 57.6 239.218973 
L 414.72 239.218973 
" style="fill:none;stroke:#b0b0b0;stroke-linecap:square;stroke-width:0.8;"/>
     </g>
     <g id="line2d_20">
      <g>
       <use style="stroke:#000000;stroke-width:0.8;" x="57.6" xlink:href="#m6d604ed77f" y="239.218973"/>
      </g>
     </g>
     <g id="text_11">
      <!-- 0.05 -->
      <g transform="translate(28.334375 243.018192)scale(0.1 -0.1)">
       <use xlink:href="#DejaVuSans-48"/>
       <use x="63.623047" xlink:href="#DejaVuSans-46"/>
       <use x="95.410156" xlink:href="#DejaVuSans-48"/>
       <use x="159.033203" xlink:href="#DejaVuSans-53"/>
      </g>
     </g>
    </g>
    <g id="ytick_3">
     <g id="line2d_21">
      <path clip-path="url(#p0813f918d2)" d="M 57.6 190.730776 
L 414.72 190.730776 
" style="fill:none;stroke:#b0b0b0;stroke-linecap:square;stroke-width:0.8;"/>
     </g>
     <g id="line2d_22">
      <g>
       <use style="stroke:#000000;stroke-width:0.8;" x="57.6" xlink:href="#m6d604ed77f" y="190.730776"/>
      </g>
     </g>
     <g id="text_12">
      <!-- 0.10 -->
      <g transform="translate(28.334375 194.529995)scale(0.1 -0.1)">
       <use xlink:href="#DejaVuSans-48"/>
       <use x="63.623047" xlink:href="#DejaVuSans-46"/>
       <use x="95.410156" xlink:href="#DejaVuSans-49"/>
       <use x="159.033203" xlink:href="#DejaVuSans-48"/>
      </g>
     </g>
    </g>
    <g id="ytick_4">
     <g id="line2d_23">
      <path clip-path="url(#p0813f918d2)" d="M 57.6 142.242579 
L 414.72 142.242579 
" style="fill:none;stroke:#b0b0b0;stroke-linecap:square;stroke-width:0.8;"/>
     </g>
     <g id="line2d_24">
      <g>
       <use style="stroke:#000000;stroke-width:0.8;" x="57.6" xlink:href="#m6d604ed77f" y="142.242579"/>
      </g>
     </g>
     <g id="text_13">
      <!-- 0.15 -->
      <g transform="translate(28.334375 146.041798)scale(0.1 -0.1)">
       <use xlink:href="#DejaVuSans-48"/>
       <use x="63.623047" xlink:href="#DejaVuSans-46"/>
       <use x="95.410156" xlink:href="#DejaVuSans-49"/>
       <use x="159.033203" xlink:href="#DejaVuSans-53"/>
      </g>
     </g>
    </g>
    <g id="ytick_5">
     <g id="line2d_25">
      <path clip-path="url(#p0813f918d2)" d="M 57.6 93.754382 
L 414.72 93.754382 
" style="fill:none;stroke:#b0b0b0;stroke-linecap:square;stroke-width:0.8;"/>
     </g>
     <g id="line2d_26">
      <g>
       <use style="stroke:#000000;stroke-width:0.8;" x="57.6" xlink:href="#m6d604ed77f" y="93.754382"/>
      </g>
     </g>
     <g id="text_14">
      <!-- 0.20 -->
      <g transform="translate(28.334375 97.5536)scale(0.1 -0.1)">
       <use xlink:href="#DejaVuSans-48"/>
       <use x="63.623047" xlink:href="#DejaVuSans-46"/>
       <use x="95.410156" xlink:href="#DejaVuSans-50"/>
       <use x="159.033203" xlink:href="#DejaVuSans-48"/>
      </g>
     </g>
    </g>
    <g id="ytick_6">
     <g id="line2d_27">
      <path clip-path="url(#p0813f918d2)" d="M 57.6 45.266184 
L 414.72 45.266184 
" style="fill:none;stroke:#b0b0b0;stroke-linecap:square;stroke-width:0.8;"/>
     </g>
     <g id="line2d_28">
      <g>
       <use style="stroke:#000000;stroke-width:0.8;" x="57.6" xlink:href="#m6d604ed77f" y="45.266184"/>
      </g>
     </g>
     <g id="text_15">
      <!-- 0.25 -->
      <g transform="translate(28.334375 49.065403)scale(0.1 -0.1)">
       <use xlink:href="#DejaVuSans-48"/>
       <use x="63.623047" xlink:href="#DejaVuSans-46"/>
       <use x="95.410156" xlink:href="#DejaVuSans-50"/>
       <use x="159.033203" xlink:href="#DejaVuSans-53"/>
      </g>
     </g>
    </g>
    <g id="text_16">
     <!-- Y -->
     <defs>
      <path d="M -0.203125 72.90625 
L 10.40625 72.90625 
L 30.609375 42.921875 
L 50.6875 72.90625 
L 61.28125 72.90625 
L 35.5 34.71875 
L 35.5 0 
L 25.59375 0 
L 25.59375 34.71875 
z
" id="DejaVuSans-89"/>
     </defs>
     <g transform="translate(22.254688 177.581906)rotate(-90)scale(0.1 -0.1)">
      <use xlink:href="#DejaVuSans-89"/>
     </g>
    </g>
   </g>
   <g id="line2d_29">
    <path clip-path="url(#p0813f918d2)" d="M 75.086758 287.6753 
L 75.458322 287.145854 
L 75.644105 287.161016 
L 75.922778 287.492712 
L 76.52657 288.281287 
L 77.2697 288.84444 
L 77.548373 290.137393 
L 77.919938 291.63605 
L 78.198611 291.9366 
L 78.709512 292.310873 
L 80.474444 294.550837 
L 81.35691 295.240319 
L 81.77492 295.485054 
L 82.703831 295.440321 
L 83.075396 295.141224 
L 83.539852 294.461568 
L 84.143644 293.054139 
L 84.840328 291.212276 
L 85.86213 287.524483 
L 87.069715 280.908465 
L 88.463082 272.097446 
L 90.042232 258.601702 
L 93.061194 226.472033 
L 93.711432 218.417139 
L 94.872571 203.886434 
L 96.265938 185.027005 
L 98.86689 150.751992 
L 100.167366 135.98938 
L 100.538931 134.559847 
L 100.678268 134.483331 
L 100.817604 134.803352 
L 101.096278 136.420196 
L 101.792961 142.480921 
L 102.396754 149.366222 
L 104.858369 181.646434 
L 106.205291 192.864054 
L 106.809083 196.205376 
L 107.598658 198.764008 
L 107.877331 199.063873 
L 108.109559 199.018677 
L 108.341787 198.729236 
L 108.62046 197.974958 
L 109.317144 195.016904 
L 109.688709 192.735278 
L 110.246055 187.594703 
L 111.639423 171.886222 
L 112.428997 159.894478 
L 113.218572 144.641328 
L 116.562653 74.210552 
L 116.980663 71.529447 
L 117.352228 70.331901 
L 117.53801 70.247446 
L 117.723792 70.530216 
L 118.002466 71.610976 
L 119.11716 77.737133 
L 120.324744 87.836143 
L 121.114319 96.629094 
L 121.346547 98.485846 
L 122.739914 104.367936 
L 123.297261 109.332981 
L 124.597737 117.202395 
L 125.480203 122.005319 
L 126.03755 124.862627 
L 126.687788 128.44465 
L 127.616699 133.139364 
L 128.174046 135.54656 
L 128.545611 137.241536 
L 128.684947 137.281916 
L 128.917175 137.239919 
L 129.056512 137.742971 
L 129.381631 140.781946 
L 129.660304 142.318884 
L 129.799641 142.259465 
L 130.12476 141.897512 
L 130.403433 142.218069 
L 130.589216 142.306163 
L 130.821444 142.10162 
L 131.239454 141.767953 
L 131.471682 141.538083 
L 131.750355 140.810281 
L 132.261256 138.636772 
L 132.865049 135.128589 
L 133.561732 129.160809 
L 134.21197 122.796052 
L 135.605337 105.496995 
L 138.345626 70.05989 
L 138.995864 63.927617 
L 139.646102 60.440838 
L 140.017667 59.249029 
L 140.203449 59.087409 
L 140.528568 59.292211 
L 141.039469 59.963942 
L 141.364588 60.628574 
L 141.87549 62.431219 
L 142.665064 66.604214 
L 144.058432 75.722853 
L 145.637581 90.946243 
L 146.427156 93.852882 
L 147.21673 96.927444 
L 147.588295 100.611906 
L 148.424315 111.885775 
L 148.656543 115.220182 
L 149.260336 126.320533 
L 150.885931 136.777962 
L 151.21105 137.717398 
L 151.536169 138.5425 
L 152.697308 142.90596 
L 153.068872 143.568457 
L 153.3011 143.577526 
L 153.626219 143.279351 
L 153.951338 142.670092 
L 154.46224 141.028332 
L 154.973141 138.914214 
L 155.484042 135.512109 
L 156.459399 127.207521 
L 157.202528 118.959486 
L 161.289739 70.598992 
L 162.21865 63.908179 
L 162.961779 60.826817 
L 163.333344 59.684632 
L 163.612017 59.5297 
L 163.937136 59.343048 
L 164.401592 59.046341 
L 164.587374 59.241252 
L 164.819602 60.048502 
L 165.330503 62.041685 
L 166.630979 63.760651 
L 166.909653 65.920437 
L 167.838564 73.785453 
L 168.210129 76.925164 
L 168.906812 83.648557 
L 169.417714 87.477597 
L 169.97506 93.936601 
L 170.485962 98.693444 
L 171.089754 104.089436 
L 171.739992 113.779993 
L 172.715349 127.744709 
L 173.737152 134.070424 
L 174.619618 139.630791 
L 175.64142 143.945931 
L 176.245213 144.59566 
L 176.430995 144.62393 
L 176.663223 144.335827 
L 177.313461 142.887437 
L 177.731471 141.416892 
L 178.195927 138.807818 
L 179.078393 131.988067 
L 179.635739 126.871968 
L 180.982661 111.214602 
L 183.397831 81.437108 
L 184.094514 74.565186 
L 185.209208 66.034654 
L 185.859446 62.756281 
L 186.834803 60.054319 
L 187.717269 59.549603 
L 187.995942 60.004226 
L 188.692626 61.729483 
L 189.017745 63.503252 
L 189.249973 64.590425 
L 190.550449 68.780576 
L 191.293578 74.21213 
L 192.686945 87.410729 
L 193.47652 95.830278 
L 194.405431 106.107442 
L 195.055669 114.960795 
L 196.077472 128.7661 
L 196.681264 132.555606 
L 198.121077 141.079899 
L 198.678424 143.345483 
L 199.189325 144.490833 
L 199.421553 144.64047 
L 199.653781 144.485988 
L 200.257573 143.629158 
L 200.629138 142.636905 
L 201.140039 140.470363 
L 201.743831 136.898622 
L 202.626297 129.369112 
L 203.090753 124.183578 
L 206.759953 80.081068 
L 208.013984 68.569149 
L 208.478439 66.016116 
L 209.825361 60.655834 
L 210.754272 59.537522 
L 211.358065 60.163642 
L 212.286976 61.872317 
L 213.076551 63.647931 
L 213.866126 68.594979 
L 214.748591 75.846379 
L 215.398829 82.242216 
L 216.095513 88.600772 
L 217.395989 102.783148 
L 217.953336 108.246896 
L 219.532485 130.486576 
L 220.275615 135.084643 
L 220.925853 139.214291 
L 221.994101 143.893611 
L 222.365665 144.296641 
L 222.876567 144.647308 
L 223.108794 144.529479 
L 223.341022 144.119004 
L 223.759032 142.748351 
L 224.455716 139.775403 
L 225.059508 135.916482 
L 225.802638 129.569424 
L 226.638658 120.909664 
L 228.496481 98.149082 
L 229.889848 81.509793 
L 230.725868 73.337427 
L 231.887007 64.93852 
L 232.955256 60.914484 
L 233.373266 60.115905 
L 233.977058 59.48348 
L 234.16284 59.648119 
L 235.045306 61.196393 
L 235.370425 62.948646 
L 235.649099 64.128534 
L 236.949575 67.25066 
L 237.599813 72.294997 
L 238.110714 76.867145 
L 239.225408 88.24199 
L 239.922091 95.205147 
L 240.990339 106.957379 
L 242.197924 126.121539 
L 242.848162 130.422807 
L 243.777074 136.723137 
L 244.520203 141.193864 
L 245.07755 143.361834 
L 245.542005 144.398493 
L 245.867124 144.705176 
L 246.145798 144.693902 
L 246.424471 144.42834 
L 246.796036 143.683577 
L 247.214046 142.304605 
L 247.771393 139.595587 
L 248.282294 136.118546 
L 249.443433 125.28072 
L 251.99794 94.564697 
L 253.344861 79.005535 
L 254.738229 67.092252 
L 255.388467 63.530995 
L 255.945813 61.604227 
L 256.735388 59.7732 
L 257.014062 59.497634 
L 257.199844 59.596067 
L 258.175201 60.67998 
L 258.407429 61.607151 
L 258.639657 62.261879 
L 259.475677 64.534033 
L 259.986578 66.269694 
L 260.961935 73.49869 
L 261.890847 82.654155 
L 262.912649 92.104671 
L 263.934452 103.586212 
L 265.560047 127.823866 
L 266.488958 133.243055 
L 267.928771 141.898458 
L 268.950574 144.593956 
L 269.229247 144.62477 
L 269.554366 144.406138 
L 269.879485 143.874688 
L 270.25105 142.778741 
L 271.040624 139.412344 
L 271.412189 136.758552 
L 272.805556 124.203547 
L 274.663379 102.127441 
L 276.660538 78.125085 
L 277.357222 71.777024 
L 278.332579 65.253135 
L 279.215045 61.233901 
L 279.540164 60.549683 
L 280.143956 59.915852 
L 280.469075 59.484785 
L 280.654858 59.575846 
L 281.305096 60.43525 
L 281.583769 61.356079 
L 282.187561 63.65388 
L 283.348701 66.492517 
L 284.602731 76.706785 
L 285.206524 83.676632 
L 285.76387 88.799354 
L 286.460554 95.57897 
L 287.575248 108.192896 
L 289.01506 129.299955 
L 289.990417 134.791542 
L 291.105111 141.258338 
L 291.755349 143.713199 
L 292.173359 144.28324 
L 292.591369 144.639156 
L 292.777152 144.52281 
L 293.055825 144.007663 
L 293.520281 142.637097 
L 294.031182 140.290798 
L 294.727866 136.196085 
L 295.656777 128.140781 
L 296.725025 116.359111 
L 300.394226 73.511283 
L 301.323137 66.694606 
L 302.066266 62.776661 
L 302.670059 61.143284 
L 303.227405 60.100197 
L 303.784752 59.48223 
L 303.970535 59.610267 
L 304.342099 60.268041 
L 304.342099 60.268041 
" style="fill:none;stroke:#1f77b4;stroke-dasharray:5.55,2.4;stroke-dashoffset:0;stroke-width:1.5;"/>
   </g>
   <g id="line2d_30">
    <path clip-path="url(#p0813f918d2)" d="M 73.832727 287.720421 
L 74.761639 287.891123 
L 75.69055 288.346167 
L 76.619462 289.103662 
L 78.012829 290.677482 
L 80.335107 293.479832 
L 81.264019 294.200451 
L 81.728474 294.381557 
L 82.19293 294.410471 
L 82.657386 294.263498 
L 83.121842 293.918533 
L 83.586297 293.355908 
L 84.050753 292.558812 
L 84.979664 290.210429 
L 85.908576 286.803663 
L 86.837487 282.310422 
L 87.766399 276.732855 
L 89.159766 266.432884 
L 90.553133 254.158952 
L 92.410956 235.743437 
L 98.44888 173.787051 
L 101.235615 148.555962 
L 102.164526 141.099084 
L 102.628982 138.004904 
L 103.093437 135.674981 
L 103.557893 134.450465 
L 104.022349 134.678932 
L 104.486805 136.599512 
L 104.95126 140.183428 
L 105.880172 150.711085 
L 107.273539 167.45347 
L 108.20245 175.960717 
L 109.131362 181.542033 
L 109.595817 183.187193 
L 110.060273 184.050277 
L 110.524729 184.107846 
L 110.989185 183.33456 
L 111.45364 181.711363 
L 111.918096 179.228261 
L 112.382552 175.879104 
L 113.311463 166.539901 
L 114.240375 153.671383 
L 115.169286 137.546467 
L 116.562653 108.387848 
L 117.95602 78.025978 
L 118.884932 62.545127 
L 119.349387 57.54943 
L 119.813843 54.926996 
L 120.278299 55.006424 
L 120.742755 57.842926 
L 121.20721 62.979937 
L 122.600577 83.897311 
L 123.993945 107.552005 
L 125.387312 131.10347 
L 126.780679 149.818619 
L 127.70959 159.335797 
L 128.174046 162.823196 
L 128.638502 165.300112 
L 129.102957 166.729451 
L 129.567413 167.1379 
L 130.031869 166.574012 
L 130.496325 165.062861 
L 130.96078 162.589107 
L 131.425236 159.122431 
L 132.354147 149.250691 
L 133.283059 136.053859 
L 134.676426 112.172771 
L 136.534249 78.829735 
L 137.46316 66.13928 
L 138.392072 57.823942 
L 138.856528 55.428414 
L 139.320983 54.344182 
L 139.785439 54.4902 
L 140.249895 55.574708 
L 140.71435 57.35396 
L 141.643262 62.713342 
L 143.501085 76.741689 
L 146.752275 101.693365 
L 150.003465 123.923819 
L 151.396832 130.577696 
L 152.325743 134.32388 
L 152.790199 135.70134 
L 153.254655 136.560713 
L 153.71911 136.861211 
L 154.183566 136.659914 
L 154.648022 136.058492 
L 155.112478 135.115801 
L 155.576933 133.778984 
L 156.041389 131.890817 
L 156.505845 129.278511 
L 157.434756 121.80862 
L 158.828123 107.508128 
L 160.22149 90.033154 
L 161.614858 71.91281 
L 162.543769 61.909119 
L 163.008225 58.2664 
L 163.47268 55.762428 
L 163.937136 54.26003 
L 164.401592 53.568 
L 164.866048 53.667003 
L 165.330503 54.694006 
L 165.794959 56.731845 
L 166.72387 63.286264 
L 167.652782 72.383174 
L 169.97506 100.908383 
L 171.368428 117.892359 
L 172.297339 126.773829 
L 173.22625 133.686395 
L 174.155162 139.182085 
L 174.619618 141.109207 
L 175.084073 142.342558 
L 175.548529 142.903053 
L 176.012985 142.889559 
L 176.47744 142.398155 
L 176.941896 141.456535 
L 177.406352 140.020385 
L 177.870808 138.018446 
L 178.799719 132.249551 
L 179.728631 124.590948 
L 180.657542 115.490603 
L 182.050909 99.47855 
L 183.908732 77.932094 
L 184.837643 69.039878 
L 185.766555 62.287646 
L 186.231011 60.019641 
L 186.695466 58.467088 
L 187.159922 57.492813 
L 187.624378 57.133416 
L 188.088833 57.580734 
L 188.553289 58.890537 
L 189.017745 60.905115 
L 189.946656 66.64268 
L 190.875568 74.635849 
L 192.268935 89.17282 
L 194.591213 114.065272 
L 195.984581 126.382119 
L 196.913492 132.807178 
L 197.842403 137.584751 
L 198.306859 139.277101 
L 198.771315 140.489469 
L 199.235771 141.216481 
L 199.700226 141.438297 
L 200.164682 141.120556 
L 200.629138 140.231043 
L 201.093593 138.761481 
L 201.558049 136.737009 
L 202.486961 131.163696 
L 203.415872 123.530113 
L 204.344783 113.748618 
L 206.202606 90.798435 
L 207.595973 73.700547 
L 208.524885 64.79308 
L 209.453796 58.45281 
L 209.918252 56.424796 
L 210.382708 55.36366 
L 210.847163 55.213944 
L 211.311619 55.810268 
L 211.776075 57.126455 
L 212.240531 59.286234 
L 213.169442 65.929739 
L 214.098353 74.40583 
L 215.956176 95.278298 
L 218.278455 120.130223 
L 219.207366 127.675949 
L 220.136278 133.594259 
L 221.065189 138.227711 
L 221.529645 139.802503 
L 221.994101 140.750501 
L 222.458556 141.082397 
L 222.923012 140.886783 
L 223.387468 140.265634 
L 223.851924 139.26339 
L 224.316379 137.834012 
L 224.780835 135.871013 
L 225.245291 133.280489 
L 226.174202 126.261993 
L 227.567569 112.645248 
L 228.960936 96.082443 
L 230.354304 79.191818 
L 231.747671 65.191985 
L 232.212126 61.67365 
L 232.676582 59.052899 
L 233.141038 57.26602 
L 233.605494 56.1453 
L 234.069949 55.707341 
L 234.534405 56.150208 
L 234.998861 57.53893 
L 235.463316 59.688751 
L 236.392228 65.750746 
L 237.321139 74.207874 
L 239.178962 94.650593 
L 241.036785 115.028549 
L 241.965696 123.708167 
L 242.894608 130.692677 
L 243.823519 136.138949 
L 244.752431 139.861641 
L 245.216886 140.920796 
L 245.681342 141.41766 
L 246.145798 141.377182 
L 246.610254 140.831658 
L 247.074709 139.798476 
L 247.539165 138.272171 
L 248.003621 136.231717 
L 248.932532 130.515821 
L 249.861444 122.583392 
L 251.254811 107.462527 
L 254.506001 69.041277 
L 255.434912 61.500335 
L 255.899368 58.744908 
L 256.363824 56.865579 
L 256.828279 55.87332 
L 257.292735 55.658778 
L 257.757191 56.166661 
L 258.221647 57.461395 
L 258.686102 59.598124 
L 259.615014 65.982373 
L 260.543925 74.336838 
L 261.937292 89.615756 
L 264.259571 115.160734 
L 265.188482 123.65636 
L 266.117394 130.722699 
L 267.046305 136.23027 
L 267.510761 138.211033 
L 267.975217 139.645443 
L 268.439672 140.581601 
L 268.904128 141.075437 
L 269.368584 141.140195 
L 269.833039 140.731435 
L 270.297495 139.776253 
L 270.761951 138.221983 
L 271.226407 136.0703 
L 272.155318 130.194186 
L 273.084229 122.485647 
L 274.013141 112.946584 
L 275.870964 90.327002 
L 277.264331 73.891369 
L 278.193242 65.032986 
L 279.122154 58.879701 
L 279.586609 57.013992 
L 280.051065 55.91511 
L 280.515521 55.584099 
L 280.979977 56.096899 
L 281.444432 57.475545 
L 281.908888 59.617441 
L 282.837799 65.83892 
L 283.766711 74.34097 
L 285.160078 89.474083 
L 287.482357 115.092272 
L 288.411268 123.834741 
L 289.340179 130.789354 
L 290.269091 136.129367 
L 291.198002 139.789715 
L 291.662458 140.818633 
L 292.126914 141.286818 
L 292.591369 141.232001 
L 293.055825 140.694178 
L 293.520281 139.680805 
L 293.984737 138.164155 
L 294.449192 136.106548 
L 295.378104 130.315027 
L 296.307015 122.426927 
L 297.700382 107.510202 
L 300.951572 69.177377 
L 301.880484 61.551601 
L 302.34494 58.881338 
L 302.809395 57.000926 
L 303.273851 55.907914 
L 303.738307 55.633698 
L 304.202762 56.175632 
L 304.667218 57.506788 
L 305.131674 59.620634 
L 306.060585 65.91623 
L 306.989497 74.291698 
L 308.84732 94.769057 
L 310.705142 115.152744 
L 312.09851 127.435951 
L 313.027421 133.73749 
L 313.956332 138.186782 
L 314.420788 139.67465 
L 314.885244 140.68207 
L 315.3497 141.211603 
L 315.814155 141.249514 
L 316.278611 140.769861 
L 316.743067 139.747891 
L 317.207522 138.173324 
L 317.671978 136.055391 
L 318.60089 130.275283 
L 319.529801 122.495289 
L 320.458712 112.836888 
L 322.316535 90.355829 
L 323.709902 73.826057 
L 324.638814 65.040279 
L 325.567725 58.861111 
L 326.032181 57.001639 
L 326.496637 55.921023 
L 326.961092 55.614871 
L 327.425548 56.14843 
L 327.890004 57.51779 
L 328.35446 59.627493 
L 329.283371 65.864759 
L 330.212282 74.366855 
L 331.60565 89.475273 
L 333.927928 115.06026 
L 334.85684 123.780962 
L 335.785751 130.770458 
L 336.714663 136.124912 
L 337.643574 139.766775 
L 338.10803 140.787392 
L 338.572485 141.25185 
L 339.036941 141.20353 
L 339.501397 140.685614 
L 339.965853 139.701386 
L 340.430308 138.203806 
L 340.894764 136.135698 
L 341.823675 130.273285 
L 342.752587 122.470744 
L 343.681498 112.916499 
L 345.539321 90.348379 
L 346.932688 73.80405 
L 347.8616 65.014896 
L 348.790511 58.886481 
L 349.254967 56.959297 
L 349.719423 55.846902 
L 350.183878 55.594391 
L 350.648334 56.186183 
L 351.11279 57.534826 
L 351.577245 59.59658 
L 352.041701 62.403448 
L 352.970613 69.937992 
L 354.36398 84.239591 
L 357.150714 115.118438 
L 358.079625 123.705163 
L 359.008537 130.809955 
L 359.937448 136.180641 
L 360.86636 139.632361 
L 361.330815 140.671848 
L 361.795271 141.243387 
L 362.259727 141.302715 
L 362.724183 140.806382 
L 363.188638 139.74181 
L 363.653094 138.133993 
L 364.582005 133.420834 
L 365.510917 126.67912 
L 366.439828 117.860958 
L 367.833195 101.943122 
L 368.297651 96.184183 
L 368.297651 96.184183 
" style="fill:none;stroke:#ff7f0e;stroke-linecap:square;stroke-width:1.5;"/>
   </g>
   <g id="line2d_31">
    <path clip-path="url(#p0813f918d2)" d="M 73.832727 287.720425 
L 74.761639 287.891193 
L 75.69055 288.346456 
L 76.619462 289.104461 
L 78.012829 290.68001 
L 80.335107 293.488949 
L 81.264019 294.21331 
L 81.728474 294.39634 
L 82.19293 294.427117 
L 82.657386 294.281808 
L 83.121842 293.938262 
L 83.586297 293.376578 
L 84.050753 292.579838 
L 84.979664 290.229716 
L 85.908576 286.816706 
L 86.837487 282.3111 
L 87.766399 276.714229 
L 89.159766 266.37242 
L 90.553133 254.04514 
L 92.410956 235.558963 
L 98.44888 173.232085 
L 101.235615 147.517973 
L 102.164526 139.903472 
L 102.628982 136.771087 
L 103.093437 134.458287 
L 103.557893 133.329826 
L 104.022349 133.748032 
L 104.486805 135.941358 
L 104.95126 139.836087 
L 105.880172 150.899237 
L 107.273539 168.067716 
L 108.20245 176.716934 
L 109.131362 182.398842 
L 109.595817 184.085377 
L 110.060273 184.983875 
L 110.524729 185.070595 
L 110.989185 184.321028 
L 111.45364 182.718948 
L 111.918096 180.257676 
L 112.382552 176.933614 
L 113.311463 167.658038 
L 114.240375 154.872789 
L 115.169286 138.843835 
L 116.562653 109.803905 
L 117.95602 79.413571 
L 118.884932 63.564215 
L 119.349387 58.256316 
L 119.813843 55.293391 
L 120.278299 55.054937 
L 120.742755 57.628662 
L 121.20721 62.582947 
L 122.600577 83.4536 
L 123.993945 107.439786 
L 125.387312 131.524808 
L 126.780679 150.759014 
L 127.70959 160.57644 
L 128.174046 164.21787 
L 128.638502 166.854375 
L 129.102957 168.443169 
L 129.567413 169.001328 
L 130.031869 168.570639 
L 130.496325 167.176679 
L 130.96078 164.812527 
L 131.425236 161.458856 
L 132.354147 151.850057 
L 133.283059 138.930411 
L 134.676426 115.30424 
L 136.534249 81.575717 
L 137.46316 68.242646 
L 138.392072 59.160174 
L 138.856528 56.35277 
L 139.320983 54.86389 
L 139.785439 54.676398 
L 140.249895 55.533457 
L 140.71435 57.156858 
L 141.178806 59.448679 
L 142.107718 65.741084 
L 144.894452 88.268569 
L 146.752275 102.828499 
L 150.003465 125.256645 
L 151.396832 131.666964 
L 152.325743 135.26207 
L 152.790199 136.625015 
L 153.254655 137.484027 
L 153.71911 137.762534 
L 154.183566 137.495807 
L 154.648022 136.794496 
L 155.112478 135.757698 
L 155.576933 134.38308 
L 156.041389 132.539668 
L 156.505845 130.033173 
L 157.434756 122.714896 
L 158.828123 108.406137 
L 160.22149 91.373373 
L 161.614858 73.437179 
L 162.543769 63.363156 
L 163.008225 59.516444 
L 163.47268 56.780231 
L 163.937136 55.096211 
L 164.401592 54.262882 
L 164.866048 54.192135 
L 165.330503 54.98344 
L 165.794959 56.763107 
L 166.259415 59.49216 
L 167.188326 67.082986 
L 168.117238 77.221665 
L 171.832883 123.005108 
L 172.761795 131.075231 
L 173.690706 137.346796 
L 174.619618 142.056436 
L 175.084073 143.499368 
L 175.548529 144.232882 
L 176.012985 144.310336 
L 176.47744 143.837003 
L 176.941896 142.889795 
L 177.406352 141.474919 
L 177.870808 139.536742 
L 178.799719 133.882677 
L 179.728631 126.105093 
L 181.121998 111.717763 
L 184.373188 74.039899 
L 185.302099 66.010056 
L 186.231011 60.388374 
L 186.695466 58.715834 
L 187.159922 57.688339 
L 187.624378 57.244411 
L 188.088833 57.533659 
L 188.553289 58.705685 
L 189.017745 60.679416 
L 189.946656 66.412755 
L 190.875568 74.416096 
L 192.268935 89.193977 
L 194.591213 114.461293 
L 195.984581 127.002404 
L 196.913492 133.481936 
L 197.842403 138.359691 
L 198.306859 140.111155 
L 198.771315 141.364675 
L 199.235771 142.111719 
L 199.700226 142.348872 
L 200.164682 142.060912 
L 200.629138 141.220765 
L 201.093593 139.804037 
L 201.558049 137.809953 
L 202.486961 132.215569 
L 203.415872 124.63246 
L 204.344783 114.992431 
L 206.202606 91.96548 
L 207.595973 74.864769 
L 208.524885 65.741966 
L 209.453796 59.257895 
L 209.918252 57.014429 
L 210.382708 55.675348 
L 210.847163 55.309336 
L 211.311619 55.775445 
L 211.776075 56.952845 
L 212.240531 58.918103 
L 212.704986 61.772386 
L 213.633898 69.496391 
L 214.562809 78.884183 
L 218.278455 120.573679 
L 219.207366 128.526876 
L 220.136278 134.405649 
L 221.065189 138.976093 
L 221.529645 140.68373 
L 221.994101 141.827157 
L 222.458556 142.320833 
L 222.923012 142.17723 
L 223.387468 141.489707 
L 223.851924 140.366385 
L 224.316379 138.854896 
L 224.780835 136.90846 
L 225.245291 134.417711 
L 226.174202 127.540094 
L 227.567569 113.699653 
L 228.960936 97.28328 
L 230.818759 75.088061 
L 231.747671 66.126123 
L 232.676582 59.560057 
L 233.141038 57.601944 
L 233.605494 56.415459 
L 234.069949 55.874809 
L 234.534405 56.096954 
L 234.998861 57.27718 
L 235.463316 59.376413 
L 236.392228 65.476627 
L 237.321139 73.865457 
L 239.178962 94.611845 
L 241.036785 115.335513 
L 241.965696 124.271852 
L 242.894608 131.452873 
L 243.823519 136.899981 
L 244.752431 140.73328 
L 245.216886 141.903622 
L 245.681342 142.497155 
L 246.145798 142.508423 
L 246.610254 141.967757 
L 247.074709 140.912733 
L 247.539165 139.363173 
L 248.003621 137.314056 
L 248.932532 131.640661 
L 249.861444 123.806711 
L 250.790355 114.015653 
L 253.112634 85.685413 
L 254.506001 69.928454 
L 255.434912 62.310238 
L 255.899368 59.419648 
L 256.363824 57.301008 
L 256.828279 56.087815 
L 257.292735 55.748672 
L 257.757191 56.166268 
L 258.221647 57.317179 
L 258.686102 59.276967 
L 259.150558 62.064993 
L 260.079469 69.561785 
L 261.008381 78.811269 
L 264.724027 120.149016 
L 265.652938 128.067872 
L 266.581849 134.401776 
L 267.510761 139.150993 
L 267.975217 140.73179 
L 268.439672 141.730468 
L 268.904128 142.18957 
L 269.368584 142.176727 
L 269.833039 141.726961 
L 270.297495 140.812573 
L 270.761951 139.360169 
L 271.226407 137.30265 
L 272.155318 131.387915 
L 273.084229 123.53267 
L 274.013141 114.058399 
L 275.406508 97.286075 
L 277.264331 74.885106 
L 278.193242 65.91691 
L 279.122154 59.467749 
L 279.586609 57.427662 
L 280.051065 56.212568 
L 280.515521 55.769218 
L 280.979977 56.105988 
L 281.444432 57.296736 
L 281.908888 59.335545 
L 282.837799 65.474317 
L 283.766711 73.983999 
L 285.624534 94.721188 
L 287.482357 115.365985 
L 288.875724 128.187876 
L 289.804635 134.470343 
L 290.733547 138.9848 
L 291.198002 140.645205 
L 291.662458 141.819156 
L 292.126914 142.424132 
L 292.591369 142.430817 
L 293.055825 141.870494 
L 293.520281 140.798629 
L 293.984737 139.248279 
L 294.449192 137.208544 
L 295.378104 131.523945 
L 296.307015 123.674525 
L 297.700382 108.650508 
L 300.951572 70.08866 
L 301.880484 62.315534 
L 302.34494 59.448238 
L 302.809395 57.403738 
L 303.273851 56.175731 
L 303.738307 55.755777 
L 304.202762 56.157103 
L 304.667218 57.363448 
L 305.131674 59.351261 
L 305.59613 62.109726 
L 306.525041 69.526558 
L 307.453952 78.759485 
L 311.169598 120.107428 
L 312.09851 128.072243 
L 313.027421 134.440425 
L 313.956332 139.08649 
L 314.420788 140.66464 
L 314.885244 141.723885 
L 315.3497 142.270727 
L 315.814155 142.313299 
L 316.278611 141.850762 
L 316.743067 140.867993 
L 317.207522 139.343442 
L 317.671978 137.260148 
L 318.60089 131.44446 
L 319.529801 123.633694 
L 320.458712 114.038759 
L 322.316535 91.485031 
L 323.709902 74.841895 
L 324.638814 65.918702 
L 325.567725 59.451839 
L 326.032181 57.377118 
L 326.496637 56.153651 
L 326.961092 55.720244 
L 327.425548 56.080317 
L 327.890004 57.299618 
L 328.35446 59.351098 
L 329.283371 65.487317 
L 330.212282 74.006697 
L 331.60565 89.281245 
L 333.927928 115.399347 
L 335.321295 128.190001 
L 336.250207 134.507825 
L 337.179118 138.966352 
L 337.643574 140.594981 
L 338.10803 141.763647 
L 338.572485 142.384965 
L 339.036941 142.407809 
L 339.501397 141.849374 
L 339.965853 140.772573 
L 340.430308 139.227824 
L 340.894764 137.208002 
L 341.823675 131.514292 
L 342.752587 123.590086 
L 344.145954 108.733019 
L 347.397144 70.066884 
L 348.326055 62.323161 
L 348.790511 59.513158 
L 349.254967 57.437137 
L 349.719423 56.141563 
L 350.183878 55.676437 
L 350.648334 56.082786 
L 351.11279 57.340164 
L 351.577245 59.352238 
L 352.041701 62.049439 
L 352.970613 69.48585 
L 354.36398 83.966749 
L 357.150714 115.449783 
L 358.079625 124.2925 
L 359.008537 131.502918 
L 359.937448 137.035146 
L 360.401904 139.106316 
L 360.86636 140.665048 
L 361.330815 141.709448 
L 361.795271 142.260074 
L 362.259727 142.328638 
L 362.724183 141.895916 
L 363.188638 140.918675 
L 363.653094 139.360671 
L 364.11755 137.222982 
L 365.046461 131.376941 
L 365.975373 123.63515 
L 366.904284 114.011404 
L 368.762107 91.490211 
L 370.155474 74.825009 
L 371.084385 65.917633 
L 372.013297 59.469019 
L 372.477753 57.410898 
L 372.942208 56.196997 
L 373.406664 55.756235 
L 373.87112 56.088691 
L 374.335575 57.281471 
L 374.800031 59.333787 
L 375.728943 65.48198 
L 376.657854 73.961399 
L 378.515677 94.726155 
L 380.3735 115.463642 
L 381.766867 128.10982 
L 382.695778 134.523805 
L 383.62469 139.028715 
L 384.089146 140.595816 
L 384.553601 141.694427 
L 385.018057 142.290906 
L 385.482513 142.354362 
L 385.946968 141.872527 
L 386.411424 140.851489 
L 386.87588 139.301442 
L 387.340336 137.223498 
L 388.269247 131.456708 
L 389.198158 123.614232 
L 390.12707 114.031396 
L 391.520437 97.289346 
L 393.37826 74.893598 
L 394.307171 65.850362 
L 395.236083 59.519586 
L 395.700538 57.421837 
L 396.164994 56.11465 
L 396.62945 55.69457 
L 397.093906 56.138833 
L 397.558361 57.351825 
L 398.022817 59.302169 
L 398.487273 62.018661 
L 398.487273 62.018661 
" style="fill:none;stroke:#2ca02c;stroke-linecap:square;stroke-width:1.5;"/>
   </g>
   <g id="patch_3">
    <path d="M 57.6 307.584 
L 57.6 41.472 
" style="fill:none;stroke:#000000;stroke-linecap:square;stroke-linejoin:miter;stroke-width:0.8;"/>
   </g>
   <g id="patch_4">
    <path d="M 414.72 307.584 
L 414.72 41.472 
" style="fill:none;stroke:#000000;stroke-linecap:square;stroke-linejoin:miter;stroke-width:0.8;"/>
   </g>
   <g id="patch_5">
    <path d="M 57.6 307.584 
L 414.72 307.584 
" style="fill:none;stroke:#000000;stroke-linecap:square;stroke-linejoin:miter;stroke-width:0.8;"/>
   </g>
   <g id="patch_6">
    <path d="M 57.6 41.472 
L 414.72 41.472 
" style="fill:none;stroke:#000000;stroke-linecap:square;stroke-linejoin:miter;stroke-width:0.8;"/>
   </g>
   <g id="text_17">
    <!-- Absolut Y-Position of movingWall -->
    <defs>
     <path d="M 34.1875 63.1875 
L 20.796875 26.90625 
L 47.609375 26.90625 
z
M 28.609375 72.90625 
L 39.796875 72.90625 
L 67.578125 0 
L 57.328125 0 
L 50.6875 18.703125 
L 17.828125 18.703125 
L 11.1875 0 
L 0.78125 0 
z
" id="DejaVuSans-65"/>
     <path d="M 48.6875 27.296875 
Q 48.6875 37.203125 44.609375 42.84375 
Q 40.53125 48.484375 33.40625 48.484375 
Q 26.265625 48.484375 22.1875 42.84375 
Q 18.109375 37.203125 18.109375 27.296875 
Q 18.109375 17.390625 22.1875 11.75 
Q 26.265625 6.109375 33.40625 6.109375 
Q 40.53125 6.109375 44.609375 11.75 
Q 48.6875 17.390625 48.6875 27.296875 
z
M 18.109375 46.390625 
Q 20.953125 51.265625 25.265625 53.625 
Q 29.59375 56 35.59375 56 
Q 45.5625 56 51.78125 48.09375 
Q 58.015625 40.1875 58.015625 27.296875 
Q 58.015625 14.40625 51.78125 6.484375 
Q 45.5625 -1.421875 35.59375 -1.421875 
Q 29.59375 -1.421875 25.265625 0.953125 
Q 20.953125 3.328125 18.109375 8.203125 
L 18.109375 0 
L 9.078125 0 
L 9.078125 75.984375 
L 18.109375 75.984375 
z
" id="DejaVuSans-98"/>
     <path d="M 44.28125 53.078125 
L 44.28125 44.578125 
Q 40.484375 46.53125 36.375 47.5 
Q 32.28125 48.484375 27.875 48.484375 
Q 21.1875 48.484375 17.84375 46.4375 
Q 14.5 44.390625 14.5 40.28125 
Q 14.5 37.15625 16.890625 35.375 
Q 19.28125 33.59375 26.515625 31.984375 
L 29.59375 31.296875 
Q 39.15625 29.25 43.1875 25.515625 
Q 47.21875 21.78125 47.21875 15.09375 
Q 47.21875 7.46875 41.1875 3.015625 
Q 35.15625 -1.421875 24.609375 -1.421875 
Q 20.21875 -1.421875 15.453125 -0.5625 
Q 10.6875 0.296875 5.421875 2 
L 5.421875 11.28125 
Q 10.40625 8.6875 15.234375 7.390625 
Q 20.0625 6.109375 24.8125 6.109375 
Q 31.15625 6.109375 34.5625 8.28125 
Q 37.984375 10.453125 37.984375 14.40625 
Q 37.984375 18.0625 35.515625 20.015625 
Q 33.0625 21.96875 24.703125 23.78125 
L 21.578125 24.515625 
Q 13.234375 26.265625 9.515625 29.90625 
Q 5.8125 33.546875 5.8125 39.890625 
Q 5.8125 47.609375 11.28125 51.796875 
Q 16.75 56 26.8125 56 
Q 31.78125 56 36.171875 55.265625 
Q 40.578125 54.546875 44.28125 53.078125 
z
" id="DejaVuSans-115"/>
     <path d="M 30.609375 48.390625 
Q 23.390625 48.390625 19.1875 42.75 
Q 14.984375 37.109375 14.984375 27.296875 
Q 14.984375 17.484375 19.15625 11.84375 
Q 23.34375 6.203125 30.609375 6.203125 
Q 37.796875 6.203125 41.984375 11.859375 
Q 46.1875 17.53125 46.1875 27.296875 
Q 46.1875 37.015625 41.984375 42.703125 
Q 37.796875 48.390625 30.609375 48.390625 
z
M 30.609375 56 
Q 42.328125 56 49.015625 48.375 
Q 55.71875 40.765625 55.71875 27.296875 
Q 55.71875 13.875 49.015625 6.21875 
Q 42.328125 -1.421875 30.609375 -1.421875 
Q 18.84375 -1.421875 12.171875 6.21875 
Q 5.515625 13.875 5.515625 27.296875 
Q 5.515625 40.765625 12.171875 48.375 
Q 18.84375 56 30.609375 56 
z
" id="DejaVuSans-111"/>
     <path d="M 9.421875 75.984375 
L 18.40625 75.984375 
L 18.40625 0 
L 9.421875 0 
z
" id="DejaVuSans-108"/>
     <path d="M 8.5 21.578125 
L 8.5 54.6875 
L 17.484375 54.6875 
L 17.484375 21.921875 
Q 17.484375 14.15625 20.5 10.265625 
Q 23.53125 6.390625 29.59375 6.390625 
Q 36.859375 6.390625 41.078125 11.03125 
Q 45.3125 15.671875 45.3125 23.6875 
L 45.3125 54.6875 
L 54.296875 54.6875 
L 54.296875 0 
L 45.3125 0 
L 45.3125 8.40625 
Q 42.046875 3.421875 37.71875 1 
Q 33.40625 -1.421875 27.6875 -1.421875 
Q 18.265625 -1.421875 13.375 4.4375 
Q 8.5 10.296875 8.5 21.578125 
z
M 31.109375 56 
z
" id="DejaVuSans-117"/>
     <path id="DejaVuSans-32"/>
     <path d="M 4.890625 31.390625 
L 31.203125 31.390625 
L 31.203125 23.390625 
L 4.890625 23.390625 
z
" id="DejaVuSans-45"/>
     <path d="M 19.671875 64.796875 
L 19.671875 37.40625 
L 32.078125 37.40625 
Q 38.96875 37.40625 42.71875 40.96875 
Q 46.484375 44.53125 46.484375 51.125 
Q 46.484375 57.671875 42.71875 61.234375 
Q 38.96875 64.796875 32.078125 64.796875 
z
M 9.8125 72.90625 
L 32.078125 72.90625 
Q 44.34375 72.90625 50.609375 67.359375 
Q 56.890625 61.8125 56.890625 51.125 
Q 56.890625 40.328125 50.609375 34.8125 
Q 44.34375 29.296875 32.078125 29.296875 
L 19.671875 29.296875 
L 19.671875 0 
L 9.8125 0 
z
" id="DejaVuSans-80"/>
     <path d="M 9.421875 54.6875 
L 18.40625 54.6875 
L 18.40625 0 
L 9.421875 0 
z
M 9.421875 75.984375 
L 18.40625 75.984375 
L 18.40625 64.59375 
L 9.421875 64.59375 
z
" id="DejaVuSans-105"/>
     <path d="M 54.890625 33.015625 
L 54.890625 0 
L 45.90625 0 
L 45.90625 32.71875 
Q 45.90625 40.484375 42.875 44.328125 
Q 39.84375 48.1875 33.796875 48.1875 
Q 26.515625 48.1875 22.3125 43.546875 
Q 18.109375 38.921875 18.109375 30.90625 
L 18.109375 0 
L 9.078125 0 
L 9.078125 54.6875 
L 18.109375 54.6875 
L 18.109375 46.1875 
Q 21.34375 51.125 25.703125 53.5625 
Q 30.078125 56 35.796875 56 
Q 45.21875 56 50.046875 50.171875 
Q 54.890625 44.34375 54.890625 33.015625 
z
" id="DejaVuSans-110"/>
     <path d="M 37.109375 75.984375 
L 37.109375 68.5 
L 28.515625 68.5 
Q 23.6875 68.5 21.796875 66.546875 
Q 19.921875 64.59375 19.921875 59.515625 
L 19.921875 54.6875 
L 34.71875 54.6875 
L 34.71875 47.703125 
L 19.921875 47.703125 
L 19.921875 0 
L 10.890625 0 
L 10.890625 47.703125 
L 2.296875 47.703125 
L 2.296875 54.6875 
L 10.890625 54.6875 
L 10.890625 58.5 
Q 10.890625 67.625 15.140625 71.796875 
Q 19.390625 75.984375 28.609375 75.984375 
z
" id="DejaVuSans-102"/>
     <path d="M 52 44.1875 
Q 55.375 50.25 60.0625 53.125 
Q 64.75 56 71.09375 56 
Q 79.640625 56 84.28125 50.015625 
Q 88.921875 44.046875 88.921875 33.015625 
L 88.921875 0 
L 79.890625 0 
L 79.890625 32.71875 
Q 79.890625 40.578125 77.09375 44.375 
Q 74.3125 48.1875 68.609375 48.1875 
Q 61.625 48.1875 57.5625 43.546875 
Q 53.515625 38.921875 53.515625 30.90625 
L 53.515625 0 
L 44.484375 0 
L 44.484375 32.71875 
Q 44.484375 40.625 41.703125 44.40625 
Q 38.921875 48.1875 33.109375 48.1875 
Q 26.21875 48.1875 22.15625 43.53125 
Q 18.109375 38.875 18.109375 30.90625 
L 18.109375 0 
L 9.078125 0 
L 9.078125 54.6875 
L 18.109375 54.6875 
L 18.109375 46.1875 
Q 21.1875 51.21875 25.484375 53.609375 
Q 29.78125 56 35.6875 56 
Q 41.65625 56 45.828125 52.96875 
Q 50 49.953125 52 44.1875 
z
" id="DejaVuSans-109"/>
     <path d="M 2.984375 54.6875 
L 12.5 54.6875 
L 29.59375 8.796875 
L 46.6875 54.6875 
L 56.203125 54.6875 
L 35.6875 0 
L 23.484375 0 
z
" id="DejaVuSans-118"/>
     <path d="M 45.40625 27.984375 
Q 45.40625 37.75 41.375 43.109375 
Q 37.359375 48.484375 30.078125 48.484375 
Q 22.859375 48.484375 18.828125 43.109375 
Q 14.796875 37.75 14.796875 27.984375 
Q 14.796875 18.265625 18.828125 12.890625 
Q 22.859375 7.515625 30.078125 7.515625 
Q 37.359375 7.515625 41.375 12.890625 
Q 45.40625 18.265625 45.40625 27.984375 
z
M 54.390625 6.78125 
Q 54.390625 -7.171875 48.1875 -13.984375 
Q 42 -20.796875 29.203125 -20.796875 
Q 24.46875 -20.796875 20.265625 -20.09375 
Q 16.0625 -19.390625 12.109375 -17.921875 
L 12.109375 -9.1875 
Q 16.0625 -11.328125 19.921875 -12.34375 
Q 23.78125 -13.375 27.78125 -13.375 
Q 36.625 -13.375 41.015625 -8.765625 
Q 45.40625 -4.15625 45.40625 5.171875 
L 45.40625 9.625 
Q 42.625 4.78125 38.28125 2.390625 
Q 33.9375 0 27.875 0 
Q 17.828125 0 11.671875 7.65625 
Q 5.515625 15.328125 5.515625 27.984375 
Q 5.515625 40.671875 11.671875 48.328125 
Q 17.828125 56 27.875 56 
Q 33.9375 56 38.28125 53.609375 
Q 42.625 51.21875 45.40625 46.390625 
L 45.40625 54.6875 
L 54.390625 54.6875 
z
" id="DejaVuSans-103"/>
     <path d="M 3.328125 72.90625 
L 13.28125 72.90625 
L 28.609375 11.28125 
L 43.890625 72.90625 
L 54.984375 72.90625 
L 70.3125 11.28125 
L 85.59375 72.90625 
L 95.609375 72.90625 
L 77.296875 0 
L 64.890625 0 
L 49.515625 63.28125 
L 33.984375 0 
L 21.578125 0 
z
" id="DejaVuSans-87"/>
     <path d="M 34.28125 27.484375 
Q 23.390625 27.484375 19.1875 25 
Q 14.984375 22.515625 14.984375 16.5 
Q 14.984375 11.71875 18.140625 8.90625 
Q 21.296875 6.109375 26.703125 6.109375 
Q 34.1875 6.109375 38.703125 11.40625 
Q 43.21875 16.703125 43.21875 25.484375 
L 43.21875 27.484375 
z
M 52.203125 31.203125 
L 52.203125 0 
L 43.21875 0 
L 43.21875 8.296875 
Q 40.140625 3.328125 35.546875 0.953125 
Q 30.953125 -1.421875 24.3125 -1.421875 
Q 15.921875 -1.421875 10.953125 3.296875 
Q 6 8.015625 6 15.921875 
Q 6 25.140625 12.171875 29.828125 
Q 18.359375 34.515625 30.609375 34.515625 
L 43.21875 34.515625 
L 43.21875 35.40625 
Q 43.21875 41.609375 39.140625 45 
Q 35.0625 48.390625 27.6875 48.390625 
Q 23 48.390625 18.546875 47.265625 
Q 14.109375 46.140625 10.015625 43.890625 
L 10.015625 52.203125 
Q 14.9375 54.109375 19.578125 55.046875 
Q 24.21875 56 28.609375 56 
Q 40.484375 56 46.34375 49.84375 
Q 52.203125 43.703125 52.203125 31.203125 
z
" id="DejaVuSans-97"/>
    </defs>
    <g transform="translate(137.450625 35.472)scale(0.12 -0.12)">
     <use xlink:href="#DejaVuSans-65"/>
     <use x="68.408203" xlink:href="#DejaVuSans-98"/>
     <use x="131.884766" xlink:href="#DejaVuSans-115"/>
     <use x="183.984375" xlink:href="#DejaVuSans-111"/>
     <use x="245.166016" xlink:href="#DejaVuSans-108"/>
     <use x="272.949219" xlink:href="#DejaVuSans-117"/>
     <use x="336.328125" xlink:href="#DejaVuSans-116"/>
     <use x="375.537109" xlink:href="#DejaVuSans-32"/>
     <use x="407.324219" xlink:href="#DejaVuSans-89"/>
     <use x="468.236328" xlink:href="#DejaVuSans-45"/>
     <use x="504.320312" xlink:href="#DejaVuSans-80"/>
     <use x="564.576172" xlink:href="#DejaVuSans-111"/>
     <use x="625.757812" xlink:href="#DejaVuSans-115"/>
     <use x="677.857422" xlink:href="#DejaVuSans-105"/>
     <use x="705.640625" xlink:href="#DejaVuSans-116"/>
     <use x="744.849609" xlink:href="#DejaVuSans-105"/>
     <use x="772.632812" xlink:href="#DejaVuSans-111"/>
     <use x="833.814453" xlink:href="#DejaVuSans-110"/>
     <use x="897.193359" xlink:href="#DejaVuSans-32"/>
     <use x="928.980469" xlink:href="#DejaVuSans-111"/>
     <use x="990.162109" xlink:href="#DejaVuSans-102"/>
     <use x="1025.367188" xlink:href="#DejaVuSans-32"/>
     <use x="1057.154297" xlink:href="#DejaVuSans-109"/>
     <use x="1154.566406" xlink:href="#DejaVuSans-111"/>
     <use x="1215.748047" xlink:href="#DejaVuSans-118"/>
     <use x="1274.927734" xlink:href="#DejaVuSans-105"/>
     <use x="1302.710938" xlink:href="#DejaVuSans-110"/>
     <use x="1366.089844" xlink:href="#DejaVuSans-103"/>
     <use x="1429.566406" xlink:href="#DejaVuSans-87"/>
     <use x="1528.349609" xlink:href="#DejaVuSans-97"/>
     <use x="1589.628906" xlink:href="#DejaVuSans-108"/>
     <use x="1617.412109" xlink:href="#DejaVuSans-108"/>
    </g>
   </g>
   <g id="legend_1">
    <g id="patch_7">
     <path d="M 166.946562 302.584 
L 407.72 302.584 
Q 409.72 302.584 409.72 300.584 
L 409.72 257.549625 
Q 409.72 255.549625 407.72 255.549625 
L 166.946562 255.549625 
Q 164.946562 255.549625 164.946562 257.549625 
L 164.946562 300.584 
Q 164.946562 302.584 166.946562 302.584 
z
" style="fill:#ffffff;opacity:0.8;stroke:#cccccc;stroke-linejoin:miter;"/>
    </g>
    <g id="line2d_32">
     <path d="M 168.946562 263.648062 
L 188.946562 263.648062 
" style="fill:none;stroke:#1f77b4;stroke-dasharray:5.55,2.4;stroke-dashoffset:0;stroke-width:1.5;"/>
    </g>
    <g id="line2d_33"/>
    <g id="text_18">
     <!-- valdez -->
     <defs>
      <path d="M 45.40625 46.390625 
L 45.40625 75.984375 
L 54.390625 75.984375 
L 54.390625 0 
L 45.40625 0 
L 45.40625 8.203125 
Q 42.578125 3.328125 38.25 0.953125 
Q 33.9375 -1.421875 27.875 -1.421875 
Q 17.96875 -1.421875 11.734375 6.484375 
Q 5.515625 14.40625 5.515625 27.296875 
Q 5.515625 40.1875 11.734375 48.09375 
Q 17.96875 56 27.875 56 
Q 33.9375 56 38.25 53.625 
Q 42.578125 51.265625 45.40625 46.390625 
z
M 14.796875 27.296875 
Q 14.796875 17.390625 18.875 11.75 
Q 22.953125 6.109375 30.078125 6.109375 
Q 37.203125 6.109375 41.296875 11.75 
Q 45.40625 17.390625 45.40625 27.296875 
Q 45.40625 37.203125 41.296875 42.84375 
Q 37.203125 48.484375 30.078125 48.484375 
Q 22.953125 48.484375 18.875 42.84375 
Q 14.796875 37.203125 14.796875 27.296875 
z
" id="DejaVuSans-100"/>
      <path d="M 56.203125 29.59375 
L 56.203125 25.203125 
L 14.890625 25.203125 
Q 15.484375 15.921875 20.484375 11.0625 
Q 25.484375 6.203125 34.421875 6.203125 
Q 39.59375 6.203125 44.453125 7.46875 
Q 49.3125 8.734375 54.109375 11.28125 
L 54.109375 2.78125 
Q 49.265625 0.734375 44.1875 -0.34375 
Q 39.109375 -1.421875 33.890625 -1.421875 
Q 20.796875 -1.421875 13.15625 6.1875 
Q 5.515625 13.8125 5.515625 26.8125 
Q 5.515625 40.234375 12.765625 48.109375 
Q 20.015625 56 32.328125 56 
Q 43.359375 56 49.78125 48.890625 
Q 56.203125 41.796875 56.203125 29.59375 
z
M 47.21875 32.234375 
Q 47.125 39.59375 43.09375 43.984375 
Q 39.0625 48.390625 32.421875 48.390625 
Q 24.90625 48.390625 20.390625 44.140625 
Q 15.875 39.890625 15.1875 32.171875 
z
" id="DejaVuSans-101"/>
      <path d="M 5.515625 54.6875 
L 48.1875 54.6875 
L 48.1875 46.484375 
L 14.40625 7.171875 
L 48.1875 7.171875 
L 48.1875 0 
L 4.296875 0 
L 4.296875 8.203125 
L 38.09375 47.515625 
L 5.515625 47.515625 
z
" id="DejaVuSans-122"/>
     </defs>
     <g transform="translate(196.946562 267.148062)scale(0.1 -0.1)">
      <use xlink:href="#DejaVuSans-118"/>
      <use x="59.179688" xlink:href="#DejaVuSans-97"/>
      <use x="120.458984" xlink:href="#DejaVuSans-108"/>
      <use x="148.242188" xlink:href="#DejaVuSans-100"/>
      <use x="211.71875" xlink:href="#DejaVuSans-101"/>
      <use x="273.242188" xlink:href="#DejaVuSans-122"/>
     </g>
    </g>
    <g id="line2d_34">
     <path d="M 168.946562 278.326188 
L 188.946562 278.326188 
" style="fill:none;stroke:#ff7f0e;stroke-linecap:square;stroke-width:1.5;"/>
    </g>
    <g id="line2d_35"/>
    <g id="text_19">
     <!-- mem4py transient solver -->
     <defs>
      <path d="M 18.109375 8.203125 
L 18.109375 -20.796875 
L 9.078125 -20.796875 
L 9.078125 54.6875 
L 18.109375 54.6875 
L 18.109375 46.390625 
Q 20.953125 51.265625 25.265625 53.625 
Q 29.59375 56 35.59375 56 
Q 45.5625 56 51.78125 48.09375 
Q 58.015625 40.1875 58.015625 27.296875 
Q 58.015625 14.40625 51.78125 6.484375 
Q 45.5625 -1.421875 35.59375 -1.421875 
Q 29.59375 -1.421875 25.265625 0.953125 
Q 20.953125 3.328125 18.109375 8.203125 
z
M 48.6875 27.296875 
Q 48.6875 37.203125 44.609375 42.84375 
Q 40.53125 48.484375 33.40625 48.484375 
Q 26.265625 48.484375 22.1875 42.84375 
Q 18.109375 37.203125 18.109375 27.296875 
Q 18.109375 17.390625 22.1875 11.75 
Q 26.265625 6.109375 33.40625 6.109375 
Q 40.53125 6.109375 44.609375 11.75 
Q 48.6875 17.390625 48.6875 27.296875 
z
" id="DejaVuSans-112"/>
      <path d="M 32.171875 -5.078125 
Q 28.375 -14.84375 24.75 -17.8125 
Q 21.140625 -20.796875 15.09375 -20.796875 
L 7.90625 -20.796875 
L 7.90625 -13.28125 
L 13.1875 -13.28125 
Q 16.890625 -13.28125 18.9375 -11.515625 
Q 21 -9.765625 23.484375 -3.21875 
L 25.09375 0.875 
L 2.984375 54.6875 
L 12.5 54.6875 
L 29.59375 11.921875 
L 46.6875 54.6875 
L 56.203125 54.6875 
z
" id="DejaVuSans-121"/>
      <path d="M 41.109375 46.296875 
Q 39.59375 47.171875 37.8125 47.578125 
Q 36.03125 48 33.890625 48 
Q 26.265625 48 22.1875 43.046875 
Q 18.109375 38.09375 18.109375 28.8125 
L 18.109375 0 
L 9.078125 0 
L 9.078125 54.6875 
L 18.109375 54.6875 
L 18.109375 46.1875 
Q 20.953125 51.171875 25.484375 53.578125 
Q 30.03125 56 36.53125 56 
Q 37.453125 56 38.578125 55.875 
Q 39.703125 55.765625 41.0625 55.515625 
z
" id="DejaVuSans-114"/>
     </defs>
     <g transform="translate(196.946562 281.826188)scale(0.1 -0.1)">
      <use xlink:href="#DejaVuSans-109"/>
      <use x="97.412109" xlink:href="#DejaVuSans-101"/>
      <use x="158.935547" xlink:href="#DejaVuSans-109"/>
      <use x="256.347656" xlink:href="#DejaVuSans-52"/>
      <use x="319.970703" xlink:href="#DejaVuSans-112"/>
      <use x="383.447266" xlink:href="#DejaVuSans-121"/>
      <use x="442.626953" xlink:href="#DejaVuSans-32"/>
      <use x="474.414062" xlink:href="#DejaVuSans-116"/>
      <use x="513.623047" xlink:href="#DejaVuSans-114"/>
      <use x="554.736328" xlink:href="#DejaVuSans-97"/>
      <use x="616.015625" xlink:href="#DejaVuSans-110"/>
      <use x="679.394531" xlink:href="#DejaVuSans-115"/>
      <use x="731.494141" xlink:href="#DejaVuSans-105"/>
      <use x="759.277344" xlink:href="#DejaVuSans-101"/>
      <use x="820.800781" xlink:href="#DejaVuSans-110"/>
      <use x="884.179688" xlink:href="#DejaVuSans-116"/>
      <use x="923.388672" xlink:href="#DejaVuSans-32"/>
      <use x="955.175781" xlink:href="#DejaVuSans-115"/>
      <use x="1007.275391" xlink:href="#DejaVuSans-111"/>
      <use x="1068.457031" xlink:href="#DejaVuSans-108"/>
      <use x="1096.240234" xlink:href="#DejaVuSans-118"/>
      <use x="1155.419922" xlink:href="#DejaVuSans-101"/>
      <use x="1216.943359" xlink:href="#DejaVuSans-114"/>
     </g>
    </g>
    <g id="line2d_36">
     <path d="M 168.946562 293.004312 
L 188.946562 293.004312 
" style="fill:none;stroke:#2ca02c;stroke-linecap:square;stroke-width:1.5;"/>
    </g>
    <g id="line2d_37"/>
    <g id="text_20">
     <!-- mem4py transient solver RBFMeshMotion -->
     <defs>
      <path d="M 44.390625 34.1875 
Q 47.5625 33.109375 50.5625 29.59375 
Q 53.5625 26.078125 56.59375 19.921875 
L 66.609375 0 
L 56 0 
L 46.6875 18.703125 
Q 43.0625 26.03125 39.671875 28.421875 
Q 36.28125 30.8125 30.421875 30.8125 
L 19.671875 30.8125 
L 19.671875 0 
L 9.8125 0 
L 9.8125 72.90625 
L 32.078125 72.90625 
Q 44.578125 72.90625 50.734375 67.671875 
Q 56.890625 62.453125 56.890625 51.90625 
Q 56.890625 45.015625 53.6875 40.46875 
Q 50.484375 35.9375 44.390625 34.1875 
z
M 19.671875 64.796875 
L 19.671875 38.921875 
L 32.078125 38.921875 
Q 39.203125 38.921875 42.84375 42.21875 
Q 46.484375 45.515625 46.484375 51.90625 
Q 46.484375 58.296875 42.84375 61.546875 
Q 39.203125 64.796875 32.078125 64.796875 
z
" id="DejaVuSans-82"/>
      <path d="M 19.671875 34.8125 
L 19.671875 8.109375 
L 35.5 8.109375 
Q 43.453125 8.109375 47.28125 11.40625 
Q 51.125 14.703125 51.125 21.484375 
Q 51.125 28.328125 47.28125 31.5625 
Q 43.453125 34.8125 35.5 34.8125 
z
M 19.671875 64.796875 
L 19.671875 42.828125 
L 34.28125 42.828125 
Q 41.5 42.828125 45.03125 45.53125 
Q 48.578125 48.25 48.578125 53.8125 
Q 48.578125 59.328125 45.03125 62.0625 
Q 41.5 64.796875 34.28125 64.796875 
z
M 9.8125 72.90625 
L 35.015625 72.90625 
Q 46.296875 72.90625 52.390625 68.21875 
Q 58.5 63.53125 58.5 54.890625 
Q 58.5 48.1875 55.375 44.234375 
Q 52.25 40.28125 46.1875 39.3125 
Q 53.46875 37.75 57.5 32.78125 
Q 61.53125 27.828125 61.53125 20.40625 
Q 61.53125 10.640625 54.890625 5.3125 
Q 48.25 0 35.984375 0 
L 9.8125 0 
z
" id="DejaVuSans-66"/>
      <path d="M 9.8125 72.90625 
L 51.703125 72.90625 
L 51.703125 64.59375 
L 19.671875 64.59375 
L 19.671875 43.109375 
L 48.578125 43.109375 
L 48.578125 34.8125 
L 19.671875 34.8125 
L 19.671875 0 
L 9.8125 0 
z
" id="DejaVuSans-70"/>
      <path d="M 9.8125 72.90625 
L 24.515625 72.90625 
L 43.109375 23.296875 
L 61.8125 72.90625 
L 76.515625 72.90625 
L 76.515625 0 
L 66.890625 0 
L 66.890625 64.015625 
L 48.09375 14.015625 
L 38.1875 14.015625 
L 19.390625 64.015625 
L 19.390625 0 
L 9.8125 0 
z
" id="DejaVuSans-77"/>
      <path d="M 54.890625 33.015625 
L 54.890625 0 
L 45.90625 0 
L 45.90625 32.71875 
Q 45.90625 40.484375 42.875 44.328125 
Q 39.84375 48.1875 33.796875 48.1875 
Q 26.515625 48.1875 22.3125 43.546875 
Q 18.109375 38.921875 18.109375 30.90625 
L 18.109375 0 
L 9.078125 0 
L 9.078125 75.984375 
L 18.109375 75.984375 
L 18.109375 46.1875 
Q 21.34375 51.125 25.703125 53.5625 
Q 30.078125 56 35.796875 56 
Q 45.21875 56 50.046875 50.171875 
Q 54.890625 44.34375 54.890625 33.015625 
z
" id="DejaVuSans-104"/>
     </defs>
     <g transform="translate(196.946562 296.504312)scale(0.1 -0.1)">
      <use xlink:href="#DejaVuSans-109"/>
      <use x="97.412109" xlink:href="#DejaVuSans-101"/>
      <use x="158.935547" xlink:href="#DejaVuSans-109"/>
      <use x="256.347656" xlink:href="#DejaVuSans-52"/>
      <use x="319.970703" xlink:href="#DejaVuSans-112"/>
      <use x="383.447266" xlink:href="#DejaVuSans-121"/>
      <use x="442.626953" xlink:href="#DejaVuSans-32"/>
      <use x="474.414062" xlink:href="#DejaVuSans-116"/>
      <use x="513.623047" xlink:href="#DejaVuSans-114"/>
      <use x="554.736328" xlink:href="#DejaVuSans-97"/>
      <use x="616.015625" xlink:href="#DejaVuSans-110"/>
      <use x="679.394531" xlink:href="#DejaVuSans-115"/>
      <use x="731.494141" xlink:href="#DejaVuSans-105"/>
      <use x="759.277344" xlink:href="#DejaVuSans-101"/>
      <use x="820.800781" xlink:href="#DejaVuSans-110"/>
      <use x="884.179688" xlink:href="#DejaVuSans-116"/>
      <use x="923.388672" xlink:href="#DejaVuSans-32"/>
      <use x="955.175781" xlink:href="#DejaVuSans-115"/>
      <use x="1007.275391" xlink:href="#DejaVuSans-111"/>
      <use x="1068.457031" xlink:href="#DejaVuSans-108"/>
      <use x="1096.240234" xlink:href="#DejaVuSans-118"/>
      <use x="1155.419922" xlink:href="#DejaVuSans-101"/>
      <use x="1216.943359" xlink:href="#DejaVuSans-114"/>
      <use x="1258.056641" xlink:href="#DejaVuSans-32"/>
      <use x="1289.84375" xlink:href="#DejaVuSans-82"/>
      <use x="1359.326172" xlink:href="#DejaVuSans-66"/>
      <use x="1427.929688" xlink:href="#DejaVuSans-70"/>
      <use x="1485.449219" xlink:href="#DejaVuSans-77"/>
      <use x="1571.728516" xlink:href="#DejaVuSans-101"/>
      <use x="1633.251953" xlink:href="#DejaVuSans-115"/>
      <use x="1685.351562" xlink:href="#DejaVuSans-104"/>
      <use x="1748.730469" xlink:href="#DejaVuSans-77"/>
      <use x="1835.009766" xlink:href="#DejaVuSans-111"/>
      <use x="1896.191406" xlink:href="#DejaVuSans-116"/>
      <use x="1935.400391" xlink:href="#DejaVuSans-105"/>
      <use x="1963.183594" xlink:href="#DejaVuSans-111"/>
      <use x="2024.365234" xlink:href="#DejaVuSans-110"/>
     </g>
    </g>
   </g>
  </g>
 </g>
 <defs>
  <clipPath id="p0813f918d2">
   <rect height="266.112" width="357.12" x="57.6" y="41.472"/>
  </clipPath>
 </defs>
</svg>
