<?xml version="1.0" encoding="utf-8" standalone="no"?>
<!DOCTYPE svg PUBLIC "-//W3C//DTD SVG 1.1//EN"
  "http://www.w3.org/Graphics/SVG/1.1/DTD/svg11.dtd">
<!-- Created with matplotlib (https://matplotlib.org/) -->
<svg height="345.6pt" version="1.1" viewBox="0 0 460.8 345.6" width="460.8pt" xmlns="http://www.w3.org/2000/svg" xmlns:xlink="http://www.w3.org/1999/xlink">
 <defs>
  <style type="text/css">
*{stroke-linecap:butt;stroke-linejoin:round;}
  </style>
 </defs>
 <g id="figure_1">
  <g id="patch_1">
   <path d="M 0 345.6 
L 460.8 345.6 
L 460.8 0 
L 0 0 
z
" style="fill:#ffffff;"/>
  </g>
  <g id="axes_1">
   <g id="patch_2">
    <path d="M 57.6 307.584 
L 414.72 307.584 
L 414.72 41.472 
L 57.6 41.472 
z
" style="fill:#ffffff;"/>
   </g>
   <g id="matplotlib.axis_1">
    <g id="xtick_1">
     <g id="line2d_1">
      <path clip-path="url(#p1017e17928)" d="M 72.746926 307.584 
L 72.746926 41.472 
" style="fill:none;stroke:#b0b0b0;stroke-linecap:square;stroke-width:0.8;"/>
     </g>
     <g id="line2d_2">
      <defs>
       <path d="M 0 0 
L 0 3.5 
" id="mc948b2c848" style="stroke:#000000;stroke-width:0.8;"/>
      </defs>
      <g>
       <use style="stroke:#000000;stroke-width:0.8;" x="72.746926" xlink:href="#mc948b2c848" y="307.584"/>
      </g>
     </g>
     <g id="text_1">
      <!-- 0 -->
      <defs>
       <path d="M 31.78125 66.40625 
Q 24.171875 66.40625 20.328125 58.90625 
Q 16.5 51.421875 16.5 36.375 
Q 16.5 21.390625 20.328125 13.890625 
Q 24.171875 6.390625 31.78125 6.390625 
Q 39.453125 6.390625 43.28125 13.890625 
Q 47.125 21.390625 47.125 36.375 
Q 47.125 51.421875 43.28125 58.90625 
Q 39.453125 66.40625 31.78125 66.40625 
z
M 31.78125 74.21875 
Q 44.046875 74.21875 50.515625 64.515625 
Q 56.984375 54.828125 56.984375 36.375 
Q 56.984375 17.96875 50.515625 8.265625 
Q 44.046875 -1.421875 31.78125 -1.421875 
Q 19.53125 -1.421875 13.0625 8.265625 
Q 6.59375 17.96875 6.59375 36.375 
Q 6.59375 54.828125 13.0625 64.515625 
Q 19.53125 74.21875 31.78125 74.21875 
z
" id="DejaVuSans-48"/>
      </defs>
      <g transform="translate(69.565676 322.182437)scale(0.1 -0.1)">
       <use xlink:href="#DejaVuSans-48"/>
      </g>
     </g>
    </g>
    <g id="xtick_2">
     <g id="line2d_3">
      <path clip-path="url(#p1017e17928)" d="M 116.178972 307.584 
L 116.178972 41.472 
" style="fill:none;stroke:#b0b0b0;stroke-linecap:square;stroke-width:0.8;"/>
     </g>
     <g id="line2d_4">
      <g>
       <use style="stroke:#000000;stroke-width:0.8;" x="116.178972" xlink:href="#mc948b2c848" y="307.584"/>
      </g>
     </g>
     <g id="text_2">
      <!-- 2 -->
      <defs>
       <path d="M 19.1875 8.296875 
L 53.609375 8.296875 
L 53.609375 0 
L 7.328125 0 
L 7.328125 8.296875 
Q 12.9375 14.109375 22.625 23.890625 
Q 32.328125 33.6875 34.8125 36.53125 
Q 39.546875 41.84375 41.421875 45.53125 
Q 43.3125 49.21875 43.3125 52.78125 
Q 43.3125 58.59375 39.234375 62.25 
Q 35.15625 65.921875 28.609375 65.921875 
Q 23.96875 65.921875 18.8125 64.3125 
Q 13.671875 62.703125 7.8125 59.421875 
L 7.8125 69.390625 
Q 13.765625 71.78125 18.9375 73 
Q 24.125 74.21875 28.421875 74.21875 
Q 39.75 74.21875 46.484375 68.546875 
Q 53.21875 62.890625 53.21875 53.421875 
Q 53.21875 48.921875 51.53125 44.890625 
Q 49.859375 40.875 45.40625 35.40625 
Q 44.1875 33.984375 37.640625 27.21875 
Q 31.109375 20.453125 19.1875 8.296875 
z
" id="DejaVuSans-50"/>
      </defs>
      <g transform="translate(112.997722 322.182437)scale(0.1 -0.1)">
       <use xlink:href="#DejaVuSans-50"/>
      </g>
     </g>
    </g>
    <g id="xtick_3">
     <g id="line2d_5">
      <path clip-path="url(#p1017e17928)" d="M 159.611019 307.584 
L 159.611019 41.472 
" style="fill:none;stroke:#b0b0b0;stroke-linecap:square;stroke-width:0.8;"/>
     </g>
     <g id="line2d_6">
      <g>
       <use style="stroke:#000000;stroke-width:0.8;" x="159.611019" xlink:href="#mc948b2c848" y="307.584"/>
      </g>
     </g>
     <g id="text_3">
      <!-- 4 -->
      <defs>
       <path d="M 37.796875 64.3125 
L 12.890625 25.390625 
L 37.796875 25.390625 
z
M 35.203125 72.90625 
L 47.609375 72.90625 
L 47.609375 25.390625 
L 58.015625 25.390625 
L 58.015625 17.1875 
L 47.609375 17.1875 
L 47.609375 0 
L 37.796875 0 
L 37.796875 17.1875 
L 4.890625 17.1875 
L 4.890625 26.703125 
z
" id="DejaVuSans-52"/>
      </defs>
      <g transform="translate(156.429769 322.182437)scale(0.1 -0.1)">
       <use xlink:href="#DejaVuSans-52"/>
      </g>
     </g>
    </g>
    <g id="xtick_4">
     <g id="line2d_7">
      <path clip-path="url(#p1017e17928)" d="M 203.043065 307.584 
L 203.043065 41.472 
" style="fill:none;stroke:#b0b0b0;stroke-linecap:square;stroke-width:0.8;"/>
     </g>
     <g id="line2d_8">
      <g>
       <use style="stroke:#000000;stroke-width:0.8;" x="203.043065" xlink:href="#mc948b2c848" y="307.584"/>
      </g>
     </g>
     <g id="text_4">
      <!-- 6 -->
      <defs>
       <path d="M 33.015625 40.375 
Q 26.375 40.375 22.484375 35.828125 
Q 18.609375 31.296875 18.609375 23.390625 
Q 18.609375 15.53125 22.484375 10.953125 
Q 26.375 6.390625 33.015625 6.390625 
Q 39.65625 6.390625 43.53125 10.953125 
Q 47.40625 15.53125 47.40625 23.390625 
Q 47.40625 31.296875 43.53125 35.828125 
Q 39.65625 40.375 33.015625 40.375 
z
M 52.59375 71.296875 
L 52.59375 62.3125 
Q 48.875 64.0625 45.09375 64.984375 
Q 41.3125 65.921875 37.59375 65.921875 
Q 27.828125 65.921875 22.671875 59.328125 
Q 17.53125 52.734375 16.796875 39.40625 
Q 19.671875 43.65625 24.015625 45.921875 
Q 28.375 48.1875 33.59375 48.1875 
Q 44.578125 48.1875 50.953125 41.515625 
Q 57.328125 34.859375 57.328125 23.390625 
Q 57.328125 12.15625 50.6875 5.359375 
Q 44.046875 -1.421875 33.015625 -1.421875 
Q 20.359375 -1.421875 13.671875 8.265625 
Q 6.984375 17.96875 6.984375 36.375 
Q 6.984375 53.65625 15.1875 63.9375 
Q 23.390625 74.21875 37.203125 74.21875 
Q 40.921875 74.21875 44.703125 73.484375 
Q 48.484375 72.75 52.59375 71.296875 
z
" id="DejaVuSans-54"/>
      </defs>
      <g transform="translate(199.861815 322.182437)scale(0.1 -0.1)">
       <use xlink:href="#DejaVuSans-54"/>
      </g>
     </g>
    </g>
    <g id="xtick_5">
     <g id="line2d_9">
      <path clip-path="url(#p1017e17928)" d="M 246.475111 307.584 
L 246.475111 41.472 
" style="fill:none;stroke:#b0b0b0;stroke-linecap:square;stroke-width:0.8;"/>
     </g>
     <g id="line2d_10">
      <g>
       <use style="stroke:#000000;stroke-width:0.8;" x="246.475111" xlink:href="#mc948b2c848" y="307.584"/>
      </g>
     </g>
     <g id="text_5">
      <!-- 8 -->
      <defs>
       <path d="M 31.78125 34.625 
Q 24.75 34.625 20.71875 30.859375 
Q 16.703125 27.09375 16.703125 20.515625 
Q 16.703125 13.921875 20.71875 10.15625 
Q 24.75 6.390625 31.78125 6.390625 
Q 38.8125 6.390625 42.859375 10.171875 
Q 46.921875 13.96875 46.921875 20.515625 
Q 46.921875 27.09375 42.890625 30.859375 
Q 38.875 34.625 31.78125 34.625 
z
M 21.921875 38.8125 
Q 15.578125 40.375 12.03125 44.71875 
Q 8.5 49.078125 8.5 55.328125 
Q 8.5 64.0625 14.71875 69.140625 
Q 20.953125 74.21875 31.78125 74.21875 
Q 42.671875 74.21875 48.875 69.140625 
Q 55.078125 64.0625 55.078125 55.328125 
Q 55.078125 49.078125 51.53125 44.71875 
Q 48 40.375 41.703125 38.8125 
Q 48.828125 37.15625 52.796875 32.3125 
Q 56.78125 27.484375 56.78125 20.515625 
Q 56.78125 9.90625 50.3125 4.234375 
Q 43.84375 -1.421875 31.78125 -1.421875 
Q 19.734375 -1.421875 13.25 4.234375 
Q 6.78125 9.90625 6.78125 20.515625 
Q 6.78125 27.484375 10.78125 32.3125 
Q 14.796875 37.15625 21.921875 38.8125 
z
M 18.3125 54.390625 
Q 18.3125 48.734375 21.84375 45.5625 
Q 25.390625 42.390625 31.78125 42.390625 
Q 38.140625 42.390625 41.71875 45.5625 
Q 45.3125 48.734375 45.3125 54.390625 
Q 45.3125 60.0625 41.71875 63.234375 
Q 38.140625 66.40625 31.78125 66.40625 
Q 25.390625 66.40625 21.84375 63.234375 
Q 18.3125 60.0625 18.3125 54.390625 
z
" id="DejaVuSans-56"/>
      </defs>
      <g transform="translate(243.293861 322.182437)scale(0.1 -0.1)">
       <use xlink:href="#DejaVuSans-56"/>
      </g>
     </g>
    </g>
    <g id="xtick_6">
     <g id="line2d_11">
      <path clip-path="url(#p1017e17928)" d="M 289.907157 307.584 
L 289.907157 41.472 
" style="fill:none;stroke:#b0b0b0;stroke-linecap:square;stroke-width:0.8;"/>
     </g>
     <g id="line2d_12">
      <g>
       <use style="stroke:#000000;stroke-width:0.8;" x="289.907157" xlink:href="#mc948b2c848" y="307.584"/>
      </g>
     </g>
     <g id="text_6">
      <!-- 10 -->
      <defs>
       <path d="M 12.40625 8.296875 
L 28.515625 8.296875 
L 28.515625 63.921875 
L 10.984375 60.40625 
L 10.984375 69.390625 
L 28.421875 72.90625 
L 38.28125 72.90625 
L 38.28125 8.296875 
L 54.390625 8.296875 
L 54.390625 0 
L 12.40625 0 
z
" id="DejaVuSans-49"/>
      </defs>
      <g transform="translate(283.544657 322.182437)scale(0.1 -0.1)">
       <use xlink:href="#DejaVuSans-49"/>
       <use x="63.623047" xlink:href="#DejaVuSans-48"/>
      </g>
     </g>
    </g>
    <g id="xtick_7">
     <g id="line2d_13">
      <path clip-path="url(#p1017e17928)" d="M 333.339203 307.584 
L 333.339203 41.472 
" style="fill:none;stroke:#b0b0b0;stroke-linecap:square;stroke-width:0.8;"/>
     </g>
     <g id="line2d_14">
      <g>
       <use style="stroke:#000000;stroke-width:0.8;" x="333.339203" xlink:href="#mc948b2c848" y="307.584"/>
      </g>
     </g>
     <g id="text_7">
      <!-- 12 -->
      <g transform="translate(326.976703 322.182437)scale(0.1 -0.1)">
       <use xlink:href="#DejaVuSans-49"/>
       <use x="63.623047" xlink:href="#DejaVuSans-50"/>
      </g>
     </g>
    </g>
    <g id="xtick_8">
     <g id="line2d_15">
      <path clip-path="url(#p1017e17928)" d="M 376.77125 307.584 
L 376.77125 41.472 
" style="fill:none;stroke:#b0b0b0;stroke-linecap:square;stroke-width:0.8;"/>
     </g>
     <g id="line2d_16">
      <g>
       <use style="stroke:#000000;stroke-width:0.8;" x="376.77125" xlink:href="#mc948b2c848" y="307.584"/>
      </g>
     </g>
     <g id="text_8">
      <!-- 14 -->
      <g transform="translate(370.40875 322.182437)scale(0.1 -0.1)">
       <use xlink:href="#DejaVuSans-49"/>
       <use x="63.623047" xlink:href="#DejaVuSans-52"/>
      </g>
     </g>
    </g>
    <g id="text_9">
     <!-- t -->
     <defs>
      <path d="M 18.3125 70.21875 
L 18.3125 54.6875 
L 36.8125 54.6875 
L 36.8125 47.703125 
L 18.3125 47.703125 
L 18.3125 18.015625 
Q 18.3125 11.328125 20.140625 9.421875 
Q 21.96875 7.515625 27.59375 7.515625 
L 36.8125 7.515625 
L 36.8125 0 
L 27.59375 0 
Q 17.1875 0 13.234375 3.875 
Q 9.28125 7.765625 9.28125 18.015625 
L 9.28125 47.703125 
L 2.6875 47.703125 
L 2.6875 54.6875 
L 9.28125 54.6875 
L 9.28125 70.21875 
z
" id="DejaVuSans-116"/>
     </defs>
     <g transform="translate(234.199844 335.860562)scale(0.1 -0.1)">
      <use xlink:href="#DejaVuSans-116"/>
     </g>
    </g>
   </g>
   <g id="matplotlib.axis_2">
    <g id="ytick_1">
     <g id="line2d_17">
      <path clip-path="url(#p1017e17928)" d="M 57.6 302.998982 
L 414.72 302.998982 
" style="fill:none;stroke:#b0b0b0;stroke-linecap:square;stroke-width:0.8;"/>
     </g>
     <g id="line2d_18">
      <defs>
       <path d="M 0 0 
L -3.5 0 
" id="md477ecb957" style="stroke:#000000;stroke-width:0.8;"/>
      </defs>
      <g>
       <use style="stroke:#000000;stroke-width:0.8;" x="57.6" xlink:href="#md477ecb957" y="302.998982"/>
      </g>
     </g>
     <g id="text_10">
      <!-- −0.006 -->
      <defs>
       <path d="M 10.59375 35.5 
L 73.1875 35.5 
L 73.1875 27.203125 
L 10.59375 27.203125 
z
" id="DejaVuSans-8722"/>
       <path d="M 10.6875 12.40625 
L 21 12.40625 
L 21 0 
L 10.6875 0 
z
" id="DejaVuSans-46"/>
      </defs>
      <g transform="translate(13.592188 306.798201)scale(0.1 -0.1)">
       <use xlink:href="#DejaVuSans-8722"/>
       <use x="83.789062" xlink:href="#DejaVuSans-48"/>
       <use x="147.412109" xlink:href="#DejaVuSans-46"/>
       <use x="179.199219" xlink:href="#DejaVuSans-48"/>
       <use x="242.822266" xlink:href="#DejaVuSans-48"/>
       <use x="306.445312" xlink:href="#DejaVuSans-54"/>
      </g>
     </g>
    </g>
    <g id="ytick_2">
     <g id="line2d_19">
      <path clip-path="url(#p1017e17928)" d="M 57.6 262.606148 
L 414.72 262.606148 
" style="fill:none;stroke:#b0b0b0;stroke-linecap:square;stroke-width:0.8;"/>
     </g>
     <g id="line2d_20">
      <g>
       <use style="stroke:#000000;stroke-width:0.8;" x="57.6" xlink:href="#md477ecb957" y="262.606148"/>
      </g>
     </g>
     <g id="text_11">
      <!-- −0.004 -->
      <g transform="translate(13.592188 266.405367)scale(0.1 -0.1)">
       <use xlink:href="#DejaVuSans-8722"/>
       <use x="83.789062" xlink:href="#DejaVuSans-48"/>
       <use x="147.412109" xlink:href="#DejaVuSans-46"/>
       <use x="179.199219" xlink:href="#DejaVuSans-48"/>
       <use x="242.822266" xlink:href="#DejaVuSans-48"/>
       <use x="306.445312" xlink:href="#DejaVuSans-52"/>
      </g>
     </g>
    </g>
    <g id="ytick_3">
     <g id="line2d_21">
      <path clip-path="url(#p1017e17928)" d="M 57.6 222.213314 
L 414.72 222.213314 
" style="fill:none;stroke:#b0b0b0;stroke-linecap:square;stroke-width:0.8;"/>
     </g>
     <g id="line2d_22">
      <g>
       <use style="stroke:#000000;stroke-width:0.8;" x="57.6" xlink:href="#md477ecb957" y="222.213314"/>
      </g>
     </g>
     <g id="text_12">
      <!-- −0.002 -->
      <g transform="translate(13.592188 226.012533)scale(0.1 -0.1)">
       <use xlink:href="#DejaVuSans-8722"/>
       <use x="83.789062" xlink:href="#DejaVuSans-48"/>
       <use x="147.412109" xlink:href="#DejaVuSans-46"/>
       <use x="179.199219" xlink:href="#DejaVuSans-48"/>
       <use x="242.822266" xlink:href="#DejaVuSans-48"/>
       <use x="306.445312" xlink:href="#DejaVuSans-50"/>
      </g>
     </g>
    </g>
    <g id="ytick_4">
     <g id="line2d_23">
      <path clip-path="url(#p1017e17928)" d="M 57.6 181.82048 
L 414.72 181.82048 
" style="fill:none;stroke:#b0b0b0;stroke-linecap:square;stroke-width:0.8;"/>
     </g>
     <g id="line2d_24">
      <g>
       <use style="stroke:#000000;stroke-width:0.8;" x="57.6" xlink:href="#md477ecb957" y="181.82048"/>
      </g>
     </g>
     <g id="text_13">
      <!-- 0.000 -->
      <g transform="translate(21.971875 185.619699)scale(0.1 -0.1)">
       <use xlink:href="#DejaVuSans-48"/>
       <use x="63.623047" xlink:href="#DejaVuSans-46"/>
       <use x="95.410156" xlink:href="#DejaVuSans-48"/>
       <use x="159.033203" xlink:href="#DejaVuSans-48"/>
       <use x="222.65625" xlink:href="#DejaVuSans-48"/>
      </g>
     </g>
    </g>
    <g id="ytick_5">
     <g id="line2d_25">
      <path clip-path="url(#p1017e17928)" d="M 57.6 141.427646 
L 414.72 141.427646 
" style="fill:none;stroke:#b0b0b0;stroke-linecap:square;stroke-width:0.8;"/>
     </g>
     <g id="line2d_26">
      <g>
       <use style="stroke:#000000;stroke-width:0.8;" x="57.6" xlink:href="#md477ecb957" y="141.427646"/>
      </g>
     </g>
     <g id="text_14">
      <!-- 0.002 -->
      <g transform="translate(21.971875 145.226865)scale(0.1 -0.1)">
       <use xlink:href="#DejaVuSans-48"/>
       <use x="63.623047" xlink:href="#DejaVuSans-46"/>
       <use x="95.410156" xlink:href="#DejaVuSans-48"/>
       <use x="159.033203" xlink:href="#DejaVuSans-48"/>
       <use x="222.65625" xlink:href="#DejaVuSans-50"/>
      </g>
     </g>
    </g>
    <g id="ytick_6">
     <g id="line2d_27">
      <path clip-path="url(#p1017e17928)" d="M 57.6 101.034813 
L 414.72 101.034813 
" style="fill:none;stroke:#b0b0b0;stroke-linecap:square;stroke-width:0.8;"/>
     </g>
     <g id="line2d_28">
      <g>
       <use style="stroke:#000000;stroke-width:0.8;" x="57.6" xlink:href="#md477ecb957" y="101.034813"/>
      </g>
     </g>
     <g id="text_15">
      <!-- 0.004 -->
      <g transform="translate(21.971875 104.834031)scale(0.1 -0.1)">
       <use xlink:href="#DejaVuSans-48"/>
       <use x="63.623047" xlink:href="#DejaVuSans-46"/>
       <use x="95.410156" xlink:href="#DejaVuSans-48"/>
       <use x="159.033203" xlink:href="#DejaVuSans-48"/>
       <use x="222.65625" xlink:href="#DejaVuSans-52"/>
      </g>
     </g>
    </g>
    <g id="ytick_7">
     <g id="line2d_29">
      <path clip-path="url(#p1017e17928)" d="M 57.6 60.641979 
L 414.72 60.641979 
" style="fill:none;stroke:#b0b0b0;stroke-linecap:square;stroke-width:0.8;"/>
     </g>
     <g id="line2d_30">
      <g>
       <use style="stroke:#000000;stroke-width:0.8;" x="57.6" xlink:href="#md477ecb957" y="60.641979"/>
      </g>
     </g>
     <g id="text_16">
      <!-- 0.006 -->
      <g transform="translate(21.971875 64.441197)scale(0.1 -0.1)">
       <use xlink:href="#DejaVuSans-48"/>
       <use x="63.623047" xlink:href="#DejaVuSans-46"/>
       <use x="95.410156" xlink:href="#DejaVuSans-48"/>
       <use x="159.033203" xlink:href="#DejaVuSans-48"/>
       <use x="222.65625" xlink:href="#DejaVuSans-54"/>
      </g>
     </g>
    </g>
    <g id="text_17">
     <!-- Y -->
     <defs>
      <path d="M -0.203125 72.90625 
L 10.40625 72.90625 
L 30.609375 42.921875 
L 50.6875 72.90625 
L 61.28125 72.90625 
L 35.5 34.71875 
L 35.5 0 
L 25.59375 0 
L 25.59375 34.71875 
z
" id="DejaVuSans-89"/>
     </defs>
     <g transform="translate(7.5125 177.581906)rotate(-90)scale(0.1 -0.1)">
      <use xlink:href="#DejaVuSans-89"/>
     </g>
    </g>
   </g>
   <g id="line2d_31">
    <path clip-path="url(#p1017e17928)" d="M 73.832727 213.625469 
L 74.918528 245.696661 
L 76.00433 252.95469 
L 77.090131 245.833277 
L 78.175932 236.487575 
L 79.261733 232.380476 
L 80.347534 234.974044 
L 81.433335 240.746838 
L 82.519137 244.774602 
L 83.604938 245.73007 
L 85.77654 244.569505 
L 86.862341 244.781698 
L 89.033943 246.012904 
L 90.119745 246.232167 
L 91.205546 246.149381 
L 93.377148 245.558171 
L 94.462949 245.103361 
L 95.54875 244.476431 
L 96.634552 243.616638 
L 97.720353 242.474714 
L 98.806154 241.00023 
L 99.891955 239.101923 
L 100.977756 236.660317 
L 102.063557 233.44346 
L 103.149358 228.994469 
L 104.23516 222.20267 
L 105.320961 204.238511 
L 106.406762 139.832532 
L 107.492563 119.248582 
L 108.578364 119.765989 
L 109.664165 125.76852 
L 110.749967 125.739928 
L 112.921569 111.287265 
L 114.00737 106.074707 
L 117.264773 94.821183 
L 119.436376 87.832592 
L 121.607978 81.499799 
L 123.77958 75.949407 
L 125.951183 71.020309 
L 128.122785 66.686945 
L 130.294387 62.979281 
L 132.46599 59.946099 
L 134.637592 57.49374 
L 135.723393 56.506689 
L 136.809194 55.678168 
L 137.894995 55.000327 
L 138.980797 54.471906 
L 140.066598 54.094276 
L 141.152399 53.867095 
L 142.2382 53.788914 
L 143.324001 53.85851 
L 144.409802 54.07534 
L 145.495604 54.436115 
L 146.581405 54.937354 
L 147.667206 55.581753 
L 148.753007 56.370671 
L 150.924609 58.363555 
L 153.096212 60.909843 
L 155.267814 64.002202 
L 157.439416 67.627384 
L 159.611019 71.78657 
L 161.782621 76.478415 
L 163.954223 81.701606 
L 166.125825 87.48647 
L 168.297428 93.894265 
L 170.46903 100.908504 
L 172.640632 108.730911 
L 174.812235 117.869913 
L 175.898036 123.172298 
L 176.983837 129.321543 
L 178.069638 137.080873 
L 179.155439 149.747674 
L 180.24124 215.517737 
L 181.327042 259.657273 
L 182.412843 260.461988 
L 183.498644 243.88454 
L 185.670246 206.284653 
L 186.756047 202.17672 
L 187.841849 226.757666 
L 188.92765 248.054877 
L 190.013451 252.473808 
L 191.099252 247.681506 
L 192.185053 241.693676 
L 193.270854 239.360802 
L 194.356656 240.826785 
L 195.442457 243.459094 
L 196.528258 244.987824 
L 197.614059 244.944189 
L 199.785661 243.466261 
L 203.043065 242.18065 
L 204.128866 241.314425 
L 205.214667 240.093204 
L 206.300468 238.527214 
L 207.386269 236.567941 
L 208.472071 234.073694 
L 209.557872 230.757045 
L 210.643673 226.153261 
L 211.729474 218.503928 
L 212.815275 186.063469 
L 213.901076 130.173907 
L 214.986877 118.532562 
L 216.072679 122.634635 
L 217.15848 129.240994 
L 218.244281 127.930383 
L 220.415883 112.207575 
L 221.501684 107.391598 
L 228.016491 86.356915 
L 230.188094 80.39 
L 232.359696 75.027369 
L 234.531298 70.265708 
L 236.702901 66.063577 
L 238.874503 62.456887 
L 241.046105 59.512115 
L 243.217708 57.12691 
L 244.303509 56.170924 
L 245.38931 55.368788 
L 246.475111 54.713291 
L 247.560912 54.205187 
L 248.646713 53.845983 
L 249.732514 53.635534 
L 250.818316 53.572952 
L 251.904117 53.656415 
L 252.989918 53.885548 
L 254.075719 54.257687 
L 255.16152 54.769176 
L 256.247321 55.423397 
L 258.418924 57.155741 
L 260.590526 59.440441 
L 262.762128 62.273387 
L 264.933731 65.642179 
L 267.105333 69.539825 
L 269.276935 73.978282 
L 271.448538 78.939867 
L 273.62014 84.447379 
L 275.791742 90.531708 
L 277.963344 97.25688 
L 280.134947 104.626445 
L 282.306549 113.042058 
L 283.39235 117.797963 
L 284.478151 123.094194 
L 285.563953 129.22715 
L 286.649754 136.951884 
L 287.735555 149.471405 
L 288.821356 215.067282 
L 289.907157 259.491441 
L 290.992958 260.528138 
L 292.07876 244.040125 
L 294.250362 206.551933 
L 295.336163 202.568737 
L 296.421964 226.838954 
L 297.507765 247.934696 
L 298.593566 252.353537 
L 299.679368 247.622923 
L 300.765169 241.683354 
L 301.85097 239.36267 
L 302.936771 240.818427 
L 304.022572 243.437936 
L 305.108373 244.959981 
L 306.194175 244.919151 
L 308.365777 243.440533 
L 311.62318 242.146292 
L 312.708981 241.277516 
L 313.794783 240.052751 
L 314.880584 238.479911 
L 315.966385 236.514588 
L 317.052186 234.011615 
L 318.137987 230.678918 
L 319.223788 226.052113 
L 320.30959 218.325887 
L 321.395391 184.741858 
L 322.481192 129.76751 
L 323.566993 118.549343 
L 324.652794 122.775522 
L 325.738595 129.305711 
L 326.824396 127.854403 
L 328.995999 112.144255 
L 330.0818 107.355846 
L 336.596607 86.334764 
L 338.768209 80.371735 
L 340.939811 75.01144 
L 343.111414 70.252218 
L 345.283016 66.05192 
L 347.454618 62.446854 
L 349.626221 59.503438 
L 351.797823 57.119367 
L 352.883624 56.163874 
L 353.969425 55.362151 
L 355.055227 54.707048 
L 356.141028 54.199319 
L 357.226829 53.840458 
L 358.31263 53.630318 
L 359.398431 53.568 
L 360.484232 53.651719 
L 361.570033 53.881094 
L 362.655835 54.253438 
L 363.741636 54.765147 
L 364.827437 55.419553 
L 366.999039 57.152208 
L 369.170642 59.437128 
L 371.342244 62.270376 
L 373.513846 65.639353 
L 375.685448 69.53723 
L 377.857051 73.975802 
L 380.028653 78.93753 
L 382.200255 84.445144 
L 384.371858 90.52949 
L 386.54346 97.254737 
L 388.715062 104.624353 
L 390.886665 113.03985 
L 391.972466 117.795613 
L 393.058267 123.091561 
L 394.144068 129.223963 
L 395.229869 136.947677 
L 396.31567 149.462498 
L 397.401472 215.051595 
L 398.487273 259.485813 
L 398.487273 259.485813 
" style="fill:none;stroke:#1f77b4;stroke-linecap:square;stroke-width:1.5;"/>
   </g>
   <g id="line2d_32">
    <path clip-path="url(#p1017e17928)" d="M 73.832727 267.54541 
L 74.918528 107.47994 
L 76.00433 294.080109 
L 77.090131 247.437643 
L 78.175932 239.091589 
L 79.261733 242.666399 
L 80.347534 241.439719 
L 81.433335 243.211267 
L 82.519137 243.443788 
L 83.604938 244.437197 
L 84.690739 244.889852 
L 85.77654 245.464573 
L 87.948142 246.126982 
L 89.033943 246.315869 
L 91.205546 246.37046 
L 92.291347 246.168378 
L 93.377148 245.821539 
L 94.462949 245.329098 
L 95.54875 244.646592 
L 96.634552 243.739091 
L 97.720353 242.54695 
L 98.806154 241.027094 
L 99.891955 239.011719 
L 100.977756 236.478328 
L 102.063557 232.878763 
L 103.149358 227.135909 
L 104.23516 123.838334 
L 105.320961 287.900686 
L 106.406762 240.91378 
L 107.492563 125.120538 
L 108.578364 283.115203 
L 109.664165 216.931654 
L 110.749967 114.212894 
L 111.835768 118.31874 
L 114.00737 108.157411 
L 116.178972 99.11256 
L 118.350575 91.500122 
L 120.522177 84.737283 
L 122.693779 78.805524 
L 124.865382 73.542297 
L 127.036984 68.915463 
L 129.208586 64.858375 
L 131.380189 61.479807 
L 133.551791 58.741035 
L 134.637592 57.572356 
L 135.723393 56.580049 
L 136.809194 55.75119 
L 137.894995 55.063682 
L 138.980797 54.529995 
L 140.066598 54.153276 
L 141.152399 53.923116 
L 142.2382 53.834948 
L 143.324001 53.886699 
L 144.409802 54.107956 
L 145.495604 54.474749 
L 146.581405 54.976451 
L 147.667206 55.614206 
L 148.753007 56.400619 
L 150.924609 58.392123 
L 153.096212 60.935084 
L 155.267814 64.026436 
L 157.439416 67.649214 
L 159.611019 71.817378 
L 161.782621 76.501559 
L 163.954223 81.729956 
L 166.125825 87.520688 
L 168.297428 93.940588 
L 170.46903 100.950764 
L 172.640632 108.864641 
L 174.812235 118.129708 
L 175.898036 123.65185 
L 176.983837 130.564176 
L 178.069638 286.29347 
L 179.155439 109.29773 
L 180.24124 290.598506 
L 181.327042 237.527006 
L 182.412843 106.228375 
L 183.498644 295.488 
L 184.584445 247.772164 
L 185.670246 238.273729 
L 186.756047 242.322223 
L 187.841849 240.098189 
L 188.92765 242.385898 
L 190.013451 241.955529 
L 191.099252 243.083785 
L 192.185053 243.430952 
L 193.270854 243.948669 
L 195.442457 244.489772 
L 197.614059 244.616575 
L 198.69986 244.514497 
L 200.871462 243.820116 
L 201.957264 243.275743 
L 203.043065 242.538214 
L 204.128866 241.581221 
L 205.214667 240.345179 
L 206.300468 238.772832 
L 207.386269 236.753286 
L 208.472071 234.087463 
L 209.557872 230.305845 
L 210.643673 222.847809 
L 211.729474 208.797189 
L 212.815275 120.880434 
L 213.901076 287.687416 
L 214.986877 237.122808 
L 216.072679 120.794605 
L 217.15848 283.272663 
L 218.244281 165.29293 
L 219.330082 113.016882 
L 220.415883 115.691946 
L 222.587486 105.609143 
L 224.759088 97.186681 
L 226.93069 89.974241 
L 229.102292 83.504917 
L 231.273895 77.806077 
L 233.445497 72.715254 
L 235.617099 68.22467 
L 237.788702 64.296675 
L 239.960304 61.01271 
L 242.131906 58.3471 
L 243.217708 57.208281 
L 244.303509 56.247529 
L 245.38931 55.444495 
L 246.475111 54.77967 
L 247.560912 54.266696 
L 248.646713 53.908232 
L 249.732514 53.694355 
L 250.818316 53.621461 
L 251.904117 53.687661 
L 252.989918 53.922101 
L 254.075719 54.300159 
L 255.16152 54.811378 
L 256.247321 55.458692 
L 257.333123 56.253942 
L 259.504725 58.260546 
L 261.676327 60.816112 
L 263.847929 63.918129 
L 266.019532 67.550257 
L 268.191134 71.726571 
L 270.362736 76.417384 
L 272.534339 81.651612 
L 274.705941 87.447335 
L 276.877543 93.880809 
L 279.049146 100.883199 
L 281.220748 108.795558 
L 283.39235 118.054619 
L 284.478151 123.561583 
L 285.563953 130.425898 
L 286.649754 286.278253 
L 287.735555 109.344967 
L 288.821356 290.535656 
L 289.907157 237.52931 
L 290.992958 106.24462 
L 292.07876 295.458599 
L 293.164561 247.803407 
L 294.250362 238.226072 
L 295.336163 242.307593 
L 296.421964 240.100587 
L 297.507765 242.36259 
L 298.593566 241.951408 
L 299.679368 243.067876 
L 300.765169 243.416766 
L 301.85097 243.93347 
L 304.022572 244.471326 
L 306.194175 244.59704 
L 307.279976 244.491397 
L 309.451578 243.792707 
L 310.537379 243.245845 
L 311.62318 242.5051 
L 312.708981 241.545078 
L 313.794783 240.305046 
L 314.880584 238.732564 
L 315.966385 236.696612 
L 317.052186 234.02746 
L 318.137987 230.199112 
L 319.223788 222.646598 
L 320.30959 217.898728 
L 321.395391 120.745385 
L 322.481192 287.577488 
L 323.566993 237.13671 
L 324.652794 120.755214 
L 325.738595 283.252279 
L 326.824396 163.91341 
L 327.910198 113.073069 
L 328.995999 115.674265 
L 331.167601 105.57135 
L 333.339203 97.15633 
L 335.510806 89.950195 
L 337.682408 83.484495 
L 339.85401 77.788998 
L 342.025613 72.700404 
L 344.197215 68.212205 
L 346.368817 64.285985 
L 348.54042 61.003453 
L 350.712022 58.339028 
L 351.797823 57.200862 
L 352.883624 56.240544 
L 355.055227 54.773556 
L 356.141028 54.260895 
L 357.226829 53.9028 
L 358.31263 53.689222 
L 359.398431 53.616604 
L 360.484232 53.683068 
L 361.570033 53.91775 
L 362.655835 54.296039 
L 363.741636 54.807399 
L 364.827437 55.454931 
L 365.913238 56.250351 
L 368.08484 58.257273 
L 370.256443 60.813052 
L 372.428045 63.915273 
L 374.599647 67.547587 
L 376.77125 71.724076 
L 378.942852 76.415016 
L 381.114454 81.649369 
L 383.286057 87.445123 
L 385.457659 93.878632 
L 387.629261 100.8811 
L 389.800863 108.793401 
L 391.972466 118.052226 
L 393.058267 123.558575 
L 394.144068 130.421879 
L 395.229869 286.276994 
L 396.31567 109.346019 
L 397.401472 290.533936 
L 398.487273 237.529396 
L 398.487273 237.529396 
" style="fill:none;stroke:#ff7f0e;stroke-dasharray:5.55,2.4;stroke-dashoffset:0;stroke-width:1.5;"/>
   </g>
   <g id="patch_3">
    <path d="M 57.6 307.584 
L 57.6 41.472 
" style="fill:none;stroke:#000000;stroke-linecap:square;stroke-linejoin:miter;stroke-width:0.8;"/>
   </g>
   <g id="patch_4">
    <path d="M 414.72 307.584 
L 414.72 41.472 
" style="fill:none;stroke:#000000;stroke-linecap:square;stroke-linejoin:miter;stroke-width:0.8;"/>
   </g>
   <g id="patch_5">
    <path d="M 57.6 307.584 
L 414.72 307.584 
" style="fill:none;stroke:#000000;stroke-linecap:square;stroke-linejoin:miter;stroke-width:0.8;"/>
   </g>
   <g id="patch_6">
    <path d="M 57.6 41.472 
L 414.72 41.472 
" style="fill:none;stroke:#000000;stroke-linecap:square;stroke-linejoin:miter;stroke-width:0.8;"/>
   </g>
   <g id="text_18">
    <!-- Absolut Y-Position of movingWall -->
    <defs>
     <path d="M 34.1875 63.1875 
L 20.796875 26.90625 
L 47.609375 26.90625 
z
M 28.609375 72.90625 
L 39.796875 72.90625 
L 67.578125 0 
L 57.328125 0 
L 50.6875 18.703125 
L 17.828125 18.703125 
L 11.1875 0 
L 0.78125 0 
z
" id="DejaVuSans-65"/>
     <path d="M 48.6875 27.296875 
Q 48.6875 37.203125 44.609375 42.84375 
Q 40.53125 48.484375 33.40625 48.484375 
Q 26.265625 48.484375 22.1875 42.84375 
Q 18.109375 37.203125 18.109375 27.296875 
Q 18.109375 17.390625 22.1875 11.75 
Q 26.265625 6.109375 33.40625 6.109375 
Q 40.53125 6.109375 44.609375 11.75 
Q 48.6875 17.390625 48.6875 27.296875 
z
M 18.109375 46.390625 
Q 20.953125 51.265625 25.265625 53.625 
Q 29.59375 56 35.59375 56 
Q 45.5625 56 51.78125 48.09375 
Q 58.015625 40.1875 58.015625 27.296875 
Q 58.015625 14.40625 51.78125 6.484375 
Q 45.5625 -1.421875 35.59375 -1.421875 
Q 29.59375 -1.421875 25.265625 0.953125 
Q 20.953125 3.328125 18.109375 8.203125 
L 18.109375 0 
L 9.078125 0 
L 9.078125 75.984375 
L 18.109375 75.984375 
z
" id="DejaVuSans-98"/>
     <path d="M 44.28125 53.078125 
L 44.28125 44.578125 
Q 40.484375 46.53125 36.375 47.5 
Q 32.28125 48.484375 27.875 48.484375 
Q 21.1875 48.484375 17.84375 46.4375 
Q 14.5 44.390625 14.5 40.28125 
Q 14.5 37.15625 16.890625 35.375 
Q 19.28125 33.59375 26.515625 31.984375 
L 29.59375 31.296875 
Q 39.15625 29.25 43.1875 25.515625 
Q 47.21875 21.78125 47.21875 15.09375 
Q 47.21875 7.46875 41.1875 3.015625 
Q 35.15625 -1.421875 24.609375 -1.421875 
Q 20.21875 -1.421875 15.453125 -0.5625 
Q 10.6875 0.296875 5.421875 2 
L 5.421875 11.28125 
Q 10.40625 8.6875 15.234375 7.390625 
Q 20.0625 6.109375 24.8125 6.109375 
Q 31.15625 6.109375 34.5625 8.28125 
Q 37.984375 10.453125 37.984375 14.40625 
Q 37.984375 18.0625 35.515625 20.015625 
Q 33.0625 21.96875 24.703125 23.78125 
L 21.578125 24.515625 
Q 13.234375 26.265625 9.515625 29.90625 
Q 5.8125 33.546875 5.8125 39.890625 
Q 5.8125 47.609375 11.28125 51.796875 
Q 16.75 56 26.8125 56 
Q 31.78125 56 36.171875 55.265625 
Q 40.578125 54.546875 44.28125 53.078125 
z
" id="DejaVuSans-115"/>
     <path d="M 30.609375 48.390625 
Q 23.390625 48.390625 19.1875 42.75 
Q 14.984375 37.109375 14.984375 27.296875 
Q 14.984375 17.484375 19.15625 11.84375 
Q 23.34375 6.203125 30.609375 6.203125 
Q 37.796875 6.203125 41.984375 11.859375 
Q 46.1875 17.53125 46.1875 27.296875 
Q 46.1875 37.015625 41.984375 42.703125 
Q 37.796875 48.390625 30.609375 48.390625 
z
M 30.609375 56 
Q 42.328125 56 49.015625 48.375 
Q 55.71875 40.765625 55.71875 27.296875 
Q 55.71875 13.875 49.015625 6.21875 
Q 42.328125 -1.421875 30.609375 -1.421875 
Q 18.84375 -1.421875 12.171875 6.21875 
Q 5.515625 13.875 5.515625 27.296875 
Q 5.515625 40.765625 12.171875 48.375 
Q 18.84375 56 30.609375 56 
z
" id="DejaVuSans-111"/>
     <path d="M 9.421875 75.984375 
L 18.40625 75.984375 
L 18.40625 0 
L 9.421875 0 
z
" id="DejaVuSans-108"/>
     <path d="M 8.5 21.578125 
L 8.5 54.6875 
L 17.484375 54.6875 
L 17.484375 21.921875 
Q 17.484375 14.15625 20.5 10.265625 
Q 23.53125 6.390625 29.59375 6.390625 
Q 36.859375 6.390625 41.078125 11.03125 
Q 45.3125 15.671875 45.3125 23.6875 
L 45.3125 54.6875 
L 54.296875 54.6875 
L 54.296875 0 
L 45.3125 0 
L 45.3125 8.40625 
Q 42.046875 3.421875 37.71875 1 
Q 33.40625 -1.421875 27.6875 -1.421875 
Q 18.265625 -1.421875 13.375 4.4375 
Q 8.5 10.296875 8.5 21.578125 
z
M 31.109375 56 
z
" id="DejaVuSans-117"/>
     <path id="DejaVuSans-32"/>
     <path d="M 4.890625 31.390625 
L 31.203125 31.390625 
L 31.203125 23.390625 
L 4.890625 23.390625 
z
" id="DejaVuSans-45"/>
     <path d="M 19.671875 64.796875 
L 19.671875 37.40625 
L 32.078125 37.40625 
Q 38.96875 37.40625 42.71875 40.96875 
Q 46.484375 44.53125 46.484375 51.125 
Q 46.484375 57.671875 42.71875 61.234375 
Q 38.96875 64.796875 32.078125 64.796875 
z
M 9.8125 72.90625 
L 32.078125 72.90625 
Q 44.34375 72.90625 50.609375 67.359375 
Q 56.890625 61.8125 56.890625 51.125 
Q 56.890625 40.328125 50.609375 34.8125 
Q 44.34375 29.296875 32.078125 29.296875 
L 19.671875 29.296875 
L 19.671875 0 
L 9.8125 0 
z
" id="DejaVuSans-80"/>
     <path d="M 9.421875 54.6875 
L 18.40625 54.6875 
L 18.40625 0 
L 9.421875 0 
z
M 9.421875 75.984375 
L 18.40625 75.984375 
L 18.40625 64.59375 
L 9.421875 64.59375 
z
" id="DejaVuSans-105"/>
     <path d="M 54.890625 33.015625 
L 54.890625 0 
L 45.90625 0 
L 45.90625 32.71875 
Q 45.90625 40.484375 42.875 44.328125 
Q 39.84375 48.1875 33.796875 48.1875 
Q 26.515625 48.1875 22.3125 43.546875 
Q 18.109375 38.921875 18.109375 30.90625 
L 18.109375 0 
L 9.078125 0 
L 9.078125 54.6875 
L 18.109375 54.6875 
L 18.109375 46.1875 
Q 21.34375 51.125 25.703125 53.5625 
Q 30.078125 56 35.796875 56 
Q 45.21875 56 50.046875 50.171875 
Q 54.890625 44.34375 54.890625 33.015625 
z
" id="DejaVuSans-110"/>
     <path d="M 37.109375 75.984375 
L 37.109375 68.5 
L 28.515625 68.5 
Q 23.6875 68.5 21.796875 66.546875 
Q 19.921875 64.59375 19.921875 59.515625 
L 19.921875 54.6875 
L 34.71875 54.6875 
L 34.71875 47.703125 
L 19.921875 47.703125 
L 19.921875 0 
L 10.890625 0 
L 10.890625 47.703125 
L 2.296875 47.703125 
L 2.296875 54.6875 
L 10.890625 54.6875 
L 10.890625 58.5 
Q 10.890625 67.625 15.140625 71.796875 
Q 19.390625 75.984375 28.609375 75.984375 
z
" id="DejaVuSans-102"/>
     <path d="M 52 44.1875 
Q 55.375 50.25 60.0625 53.125 
Q 64.75 56 71.09375 56 
Q 79.640625 56 84.28125 50.015625 
Q 88.921875 44.046875 88.921875 33.015625 
L 88.921875 0 
L 79.890625 0 
L 79.890625 32.71875 
Q 79.890625 40.578125 77.09375 44.375 
Q 74.3125 48.1875 68.609375 48.1875 
Q 61.625 48.1875 57.5625 43.546875 
Q 53.515625 38.921875 53.515625 30.90625 
L 53.515625 0 
L 44.484375 0 
L 44.484375 32.71875 
Q 44.484375 40.625 41.703125 44.40625 
Q 38.921875 48.1875 33.109375 48.1875 
Q 26.21875 48.1875 22.15625 43.53125 
Q 18.109375 38.875 18.109375 30.90625 
L 18.109375 0 
L 9.078125 0 
L 9.078125 54.6875 
L 18.109375 54.6875 
L 18.109375 46.1875 
Q 21.1875 51.21875 25.484375 53.609375 
Q 29.78125 56 35.6875 56 
Q 41.65625 56 45.828125 52.96875 
Q 50 49.953125 52 44.1875 
z
" id="DejaVuSans-109"/>
     <path d="M 2.984375 54.6875 
L 12.5 54.6875 
L 29.59375 8.796875 
L 46.6875 54.6875 
L 56.203125 54.6875 
L 35.6875 0 
L 23.484375 0 
z
" id="DejaVuSans-118"/>
     <path d="M 45.40625 27.984375 
Q 45.40625 37.75 41.375 43.109375 
Q 37.359375 48.484375 30.078125 48.484375 
Q 22.859375 48.484375 18.828125 43.109375 
Q 14.796875 37.75 14.796875 27.984375 
Q 14.796875 18.265625 18.828125 12.890625 
Q 22.859375 7.515625 30.078125 7.515625 
Q 37.359375 7.515625 41.375 12.890625 
Q 45.40625 18.265625 45.40625 27.984375 
z
M 54.390625 6.78125 
Q 54.390625 -7.171875 48.1875 -13.984375 
Q 42 -20.796875 29.203125 -20.796875 
Q 24.46875 -20.796875 20.265625 -20.09375 
Q 16.0625 -19.390625 12.109375 -17.921875 
L 12.109375 -9.1875 
Q 16.0625 -11.328125 19.921875 -12.34375 
Q 23.78125 -13.375 27.78125 -13.375 
Q 36.625 -13.375 41.015625 -8.765625 
Q 45.40625 -4.15625 45.40625 5.171875 
L 45.40625 9.625 
Q 42.625 4.78125 38.28125 2.390625 
Q 33.9375 0 27.875 0 
Q 17.828125 0 11.671875 7.65625 
Q 5.515625 15.328125 5.515625 27.984375 
Q 5.515625 40.671875 11.671875 48.328125 
Q 17.828125 56 27.875 56 
Q 33.9375 56 38.28125 53.609375 
Q 42.625 51.21875 45.40625 46.390625 
L 45.40625 54.6875 
L 54.390625 54.6875 
z
" id="DejaVuSans-103"/>
     <path d="M 3.328125 72.90625 
L 13.28125 72.90625 
L 28.609375 11.28125 
L 43.890625 72.90625 
L 54.984375 72.90625 
L 70.3125 11.28125 
L 85.59375 72.90625 
L 95.609375 72.90625 
L 77.296875 0 
L 64.890625 0 
L 49.515625 63.28125 
L 33.984375 0 
L 21.578125 0 
z
" id="DejaVuSans-87"/>
     <path d="M 34.28125 27.484375 
Q 23.390625 27.484375 19.1875 25 
Q 14.984375 22.515625 14.984375 16.5 
Q 14.984375 11.71875 18.140625 8.90625 
Q 21.296875 6.109375 26.703125 6.109375 
Q 34.1875 6.109375 38.703125 11.40625 
Q 43.21875 16.703125 43.21875 25.484375 
L 43.21875 27.484375 
z
M 52.203125 31.203125 
L 52.203125 0 
L 43.21875 0 
L 43.21875 8.296875 
Q 40.140625 3.328125 35.546875 0.953125 
Q 30.953125 -1.421875 24.3125 -1.421875 
Q 15.921875 -1.421875 10.953125 3.296875 
Q 6 8.015625 6 15.921875 
Q 6 25.140625 12.171875 29.828125 
Q 18.359375 34.515625 30.609375 34.515625 
L 43.21875 34.515625 
L 43.21875 35.40625 
Q 43.21875 41.609375 39.140625 45 
Q 35.0625 48.390625 27.6875 48.390625 
Q 23 48.390625 18.546875 47.265625 
Q 14.109375 46.140625 10.015625 43.890625 
L 10.015625 52.203125 
Q 14.9375 54.109375 19.578125 55.046875 
Q 24.21875 56 28.609375 56 
Q 40.484375 56 46.34375 49.84375 
Q 52.203125 43.703125 52.203125 31.203125 
z
" id="DejaVuSans-97"/>
    </defs>
    <g transform="translate(137.450625 35.472)scale(0.12 -0.12)">
     <use xlink:href="#DejaVuSans-65"/>
     <use x="68.408203" xlink:href="#DejaVuSans-98"/>
     <use x="131.884766" xlink:href="#DejaVuSans-115"/>
     <use x="183.984375" xlink:href="#DejaVuSans-111"/>
     <use x="245.166016" xlink:href="#DejaVuSans-108"/>
     <use x="272.949219" xlink:href="#DejaVuSans-117"/>
     <use x="336.328125" xlink:href="#DejaVuSans-116"/>
     <use x="375.537109" xlink:href="#DejaVuSans-32"/>
     <use x="407.324219" xlink:href="#DejaVuSans-89"/>
     <use x="468.236328" xlink:href="#DejaVuSans-45"/>
     <use x="504.320312" xlink:href="#DejaVuSans-80"/>
     <use x="564.576172" xlink:href="#DejaVuSans-111"/>
     <use x="625.757812" xlink:href="#DejaVuSans-115"/>
     <use x="677.857422" xlink:href="#DejaVuSans-105"/>
     <use x="705.640625" xlink:href="#DejaVuSans-116"/>
     <use x="744.849609" xlink:href="#DejaVuSans-105"/>
     <use x="772.632812" xlink:href="#DejaVuSans-111"/>
     <use x="833.814453" xlink:href="#DejaVuSans-110"/>
     <use x="897.193359" xlink:href="#DejaVuSans-32"/>
     <use x="928.980469" xlink:href="#DejaVuSans-111"/>
     <use x="990.162109" xlink:href="#DejaVuSans-102"/>
     <use x="1025.367188" xlink:href="#DejaVuSans-32"/>
     <use x="1057.154297" xlink:href="#DejaVuSans-109"/>
     <use x="1154.566406" xlink:href="#DejaVuSans-111"/>
     <use x="1215.748047" xlink:href="#DejaVuSans-118"/>
     <use x="1274.927734" xlink:href="#DejaVuSans-105"/>
     <use x="1302.710938" xlink:href="#DejaVuSans-110"/>
     <use x="1366.089844" xlink:href="#DejaVuSans-103"/>
     <use x="1429.566406" xlink:href="#DejaVuSans-87"/>
     <use x="1528.349609" xlink:href="#DejaVuSans-97"/>
     <use x="1589.628906" xlink:href="#DejaVuSans-108"/>
     <use x="1617.412109" xlink:href="#DejaVuSans-108"/>
    </g>
   </g>
   <g id="legend_1">
    <g id="patch_7">
     <path d="M 339.099688 190.706125 
L 407.72 190.706125 
Q 409.72 190.706125 409.72 188.706125 
L 409.72 160.349875 
Q 409.72 158.349875 407.72 158.349875 
L 339.099688 158.349875 
Q 337.099688 158.349875 337.099688 160.349875 
L 337.099688 188.706125 
Q 337.099688 190.706125 339.099688 190.706125 
z
" style="fill:#ffffff;opacity:0.8;stroke:#cccccc;stroke-linejoin:miter;"/>
    </g>
    <g id="line2d_33">
     <path d="M 341.099688 166.448312 
L 361.099688 166.448312 
" style="fill:none;stroke:#1f77b4;stroke-linecap:square;stroke-width:1.5;"/>
    </g>
    <g id="line2d_34"/>
    <g id="text_19">
     <!-- explicit -->
     <defs>
      <path d="M 56.203125 29.59375 
L 56.203125 25.203125 
L 14.890625 25.203125 
Q 15.484375 15.921875 20.484375 11.0625 
Q 25.484375 6.203125 34.421875 6.203125 
Q 39.59375 6.203125 44.453125 7.46875 
Q 49.3125 8.734375 54.109375 11.28125 
L 54.109375 2.78125 
Q 49.265625 0.734375 44.1875 -0.34375 
Q 39.109375 -1.421875 33.890625 -1.421875 
Q 20.796875 -1.421875 13.15625 6.1875 
Q 5.515625 13.8125 5.515625 26.8125 
Q 5.515625 40.234375 12.765625 48.109375 
Q 20.015625 56 32.328125 56 
Q 43.359375 56 49.78125 48.890625 
Q 56.203125 41.796875 56.203125 29.59375 
z
M 47.21875 32.234375 
Q 47.125 39.59375 43.09375 43.984375 
Q 39.0625 48.390625 32.421875 48.390625 
Q 24.90625 48.390625 20.390625 44.140625 
Q 15.875 39.890625 15.1875 32.171875 
z
" id="DejaVuSans-101"/>
      <path d="M 54.890625 54.6875 
L 35.109375 28.078125 
L 55.90625 0 
L 45.3125 0 
L 29.390625 21.484375 
L 13.484375 0 
L 2.875 0 
L 24.125 28.609375 
L 4.6875 54.6875 
L 15.28125 54.6875 
L 29.78125 35.203125 
L 44.28125 54.6875 
z
" id="DejaVuSans-120"/>
      <path d="M 18.109375 8.203125 
L 18.109375 -20.796875 
L 9.078125 -20.796875 
L 9.078125 54.6875 
L 18.109375 54.6875 
L 18.109375 46.390625 
Q 20.953125 51.265625 25.265625 53.625 
Q 29.59375 56 35.59375 56 
Q 45.5625 56 51.78125 48.09375 
Q 58.015625 40.1875 58.015625 27.296875 
Q 58.015625 14.40625 51.78125 6.484375 
Q 45.5625 -1.421875 35.59375 -1.421875 
Q 29.59375 -1.421875 25.265625 0.953125 
Q 20.953125 3.328125 18.109375 8.203125 
z
M 48.6875 27.296875 
Q 48.6875 37.203125 44.609375 42.84375 
Q 40.53125 48.484375 33.40625 48.484375 
Q 26.265625 48.484375 22.1875 42.84375 
Q 18.109375 37.203125 18.109375 27.296875 
Q 18.109375 17.390625 22.1875 11.75 
Q 26.265625 6.109375 33.40625 6.109375 
Q 40.53125 6.109375 44.609375 11.75 
Q 48.6875 17.390625 48.6875 27.296875 
z
" id="DejaVuSans-112"/>
      <path d="M 48.78125 52.59375 
L 48.78125 44.1875 
Q 44.96875 46.296875 41.140625 47.34375 
Q 37.3125 48.390625 33.40625 48.390625 
Q 24.65625 48.390625 19.8125 42.84375 
Q 14.984375 37.3125 14.984375 27.296875 
Q 14.984375 17.28125 19.8125 11.734375 
Q 24.65625 6.203125 33.40625 6.203125 
Q 37.3125 6.203125 41.140625 7.25 
Q 44.96875 8.296875 48.78125 10.40625 
L 48.78125 2.09375 
Q 45.015625 0.34375 40.984375 -0.53125 
Q 36.96875 -1.421875 32.421875 -1.421875 
Q 20.0625 -1.421875 12.78125 6.34375 
Q 5.515625 14.109375 5.515625 27.296875 
Q 5.515625 40.671875 12.859375 48.328125 
Q 20.21875 56 33.015625 56 
Q 37.15625 56 41.109375 55.140625 
Q 45.0625 54.296875 48.78125 52.59375 
z
" id="DejaVuSans-99"/>
     </defs>
     <g transform="translate(369.099688 169.948312)scale(0.1 -0.1)">
      <use xlink:href="#DejaVuSans-101"/>
      <use x="61.507812" xlink:href="#DejaVuSans-120"/>
      <use x="120.6875" xlink:href="#DejaVuSans-112"/>
      <use x="184.164062" xlink:href="#DejaVuSans-108"/>
      <use x="211.947266" xlink:href="#DejaVuSans-105"/>
      <use x="239.730469" xlink:href="#DejaVuSans-99"/>
      <use x="294.710938" xlink:href="#DejaVuSans-105"/>
      <use x="322.494141" xlink:href="#DejaVuSans-116"/>
     </g>
    </g>
    <g id="line2d_35">
     <path d="M 341.099688 181.126437 
L 361.099688 181.126437 
" style="fill:none;stroke:#ff7f0e;stroke-dasharray:5.55,2.4;stroke-dashoffset:0;stroke-width:1.5;"/>
    </g>
    <g id="line2d_36"/>
    <g id="text_20">
     <!-- implicit -->
     <g transform="translate(369.099688 184.626437)scale(0.1 -0.1)">
      <use xlink:href="#DejaVuSans-105"/>
      <use x="27.783203" xlink:href="#DejaVuSans-109"/>
      <use x="125.195312" xlink:href="#DejaVuSans-112"/>
      <use x="188.671875" xlink:href="#DejaVuSans-108"/>
      <use x="216.455078" xlink:href="#DejaVuSans-105"/>
      <use x="244.238281" xlink:href="#DejaVuSans-99"/>
      <use x="299.21875" xlink:href="#DejaVuSans-105"/>
      <use x="327.001953" xlink:href="#DejaVuSans-116"/>
     </g>
    </g>
   </g>
  </g>
 </g>
 <defs>
  <clipPath id="p1017e17928">
   <rect height="266.112" width="357.12" x="57.6" y="41.472"/>
  </clipPath>
 </defs>
</svg>
